<svg id="Layer_1" data-name="Layer 1" xmlns="http://www.w3.org/2000/svg" xmlns:xlink="http://www.w3.org/1999/xlink" viewBox="0 0 512 512"><defs><style>.cls-1{fill:url(#radial-gradient);}.cls-2{fill:#fff;}</style><radialGradient id="radial-gradient" cx="-480.37" cy="117.56" r="684.44" gradientTransform="matrix(0.06, -1.08, -0.92, -0.05, 144.47, -48.12)" gradientUnits="userSpaceOnUse"><stop offset="0" stop-color="#fed576"/><stop offset="0.26" stop-color="#f47133"/><stop offset="0.61" stop-color="#bc3081"/><stop offset="1" stop-color="#4c63d2"/></radialGradient></defs><title>icon-social-instagram</title><g id="Background"><path class="cls-1" d="M0,249.51v13.84C3.57,395.73,110.21,502,237.07,512h39C403.74,501.94,508.54,394.65,512,263.14V249.51C508.54,115.61,400.06,7,269.41.32,128.81-6.82,3.89,106,0,249.51Z"/></g><g id="Symbol"><path class="cls-2" d="M257.19,128.59c40.77,0,45.64.11,61.76.87,14.93.65,22.93,3.24,28.34,5.3a46.82,46.82,0,0,1,17.52,11.57,49.16,49.16,0,0,1,11.46,17.85c2.05,5.52,4.54,13.74,5.3,28.88.76,16.44.87,21.31.87,62.84s-.11,46.4-.87,62.84c-.65,15.14-3.14,23.36-5.3,28.88a47.79,47.79,0,0,1-11.46,17.85A46.82,46.82,0,0,1,347.28,377c-5.41,2.16-13.52,4.65-28.34,5.3-16.11.76-21,.87-61.76.87s-45.64-.11-61.76-.87c-14.93-.65-22.93-3.24-28.34-5.3a46.82,46.82,0,0,1-17.52-11.57,49.16,49.16,0,0,1-11.46-17.85c-2.05-5.52-4.54-13.74-5.3-28.88-.76-16.44-.87-21.31-.87-62.84s.11-46.4.87-62.84c.65-15.14,3.14-23.36,5.3-28.88a47.79,47.79,0,0,1,11.46-17.85,46.82,46.82,0,0,1,17.52-11.57c5.41-2.16,13.52-4.65,28.34-5.3,16.11-.65,21-.87,61.76-.87m0-28c-41.53,0-46.72.22-62.95,1s-27.36,3.35-37.1,7.25a74.42,74.42,0,0,0-27,18,75.37,75.37,0,0,0-17.63,27.58c-3.79,9.84-6.38,21.2-7.14,37.75s-.87,21.85-.87,64,.22,47.48.87,64,3.35,27.8,7.14,37.75a76.27,76.27,0,0,0,17.63,27.58,75.34,75.34,0,0,0,27,18c9.73,3.89,20.87,6.49,37.1,7.25s21.52,1,62.95,1,46.72-.22,62.95-1,27.36-3.35,37.1-7.25a74.42,74.42,0,0,0,27-18,75.37,75.37,0,0,0,17.63-27.58c3.79-9.84,6.38-21.2,7.14-37.75s.87-21.85.87-64-.22-47.48-.87-64-3.35-27.8-7.14-37.75a76.27,76.27,0,0,0-17.63-27.58,75.34,75.34,0,0,0-27-18c-9.73-3.89-20.87-6.49-37.1-7.25s-21.52-1-62.95-1Z"/><path class="cls-2" d="M257.19,176.18c-43.37,0-78.41,35.69-78.41,79.82s35.15,79.82,78.41,79.82S335.6,300.13,335.6,256,300.45,176.18,257.19,176.18Zm0,131.62c-28.12,0-50.94-23.15-50.94-51.81s22.82-51.81,50.94-51.81,50.94,23.15,50.94,51.81S285.31,307.8,257.19,307.8Z"/><ellipse class="cls-2" cx="338.74" cy="173.04" rx="18.28" ry="18.6"/></g></svg>