<svg version="1.1" xmlns="http://www.w3.org/2000/svg" xmlns:xlink="http://www.w3.org/1999/xlink">
<defs>
  <symbol id="icon-md__menu" viewBox="0 0 24 24">
    <path d="M3 18h18v-2H3v2zm0-5h18v-2H3v2zm0-7v2h18V6H3z"/>
  </symbol>

  <symbol id="icon-md__keyboard_arrow_down" viewBox="0 0 24 24">
    <path d="M7.41 8.59L12 13.17l4.59-4.58L18 10l-6 6-6-6 1.41-1.41z"/>
  </symbol>

  <symbol id="icon-md__keyboard_arrow_up" viewBox="0 0 24 24">
    <path d="M7.41 15.41L12 10.83l4.59 4.58L18 14l-6-6-6 6z"/>
  </symbol>

  <symbol id="icon-md__open_in_new__filled" viewBox="0 0 24 24">
    <path d="M0 0h24v24H0z" fill="none"/>
    <path d="M19 19H5V5h7V3H5c-1.11 0-2 .9-2 2v14c0 1.1.89 2 2 2h14c1.1 0 2-.9 2-2v-7h-2v7zM14 3v2h3.59l-9.83 9.83 1.41 1.41L19 6.41V10h2V3h-7z"/>
  </symbol>

  <symbol id="icon-md__account_circle__filled" viewBox="0 0 24 24">
    <path d="M12 2C6.48 2 2 6.48 2 12s4.48 10 10 10 10-4.48 10-10S17.52 2 12 2zm0 3c1.66 0 3 1.34 3 3s-1.34 3-3 3-3-1.34-3-3 1.34-3 3-3zm0 14.2c-2.5 0-4.71-1.28-6-3.22.03-1.99 4-3.08 6-3.08 1.99 0 5.97 1.09 6 3.08-1.29 1.94-3.5 3.22-6 3.22z"/>
    <path d="M0 0h24v24H0z" fill="none"/>
  </symbol>

  <symbol id="icon-md__place__filled" viewBox="0 0 24 24">
    <path d="M12 2C8.13 2 5 5.13 5 9c0 5.25 7 13 7 13s7-7.75 7-13c0-3.87-3.13-7-7-7zm0 9.5c-1.38 0-2.5-1.12-2.5-2.5s1.12-2.5 2.5-2.5 2.5 1.12 2.5 2.5-1.12 2.5-2.5 2.5z"/>
    <path d="M0 0h24v24H0z" fill="none"/>
  </symbol>

  <symbol id="icon-md__access_time__filled" viewBox="0 0 24 24">
    <path d="M11.99 2C6.47 2 2 6.48 2 12s4.47 10 9.99 10C17.52 22 22 17.52 22 12S17.52 2 11.99 2zM12 20c-4.42 0-8-3.58-8-8s3.58-8 8-8 8 3.58 8 8-3.58 8-8 8z"/>
    <path d="M0 0h24v24H0z" fill="none"/>
    <path d="M12.5 7H11v6l5.25 3.15.75-1.23-4.5-2.67z"/>
  </symbol>

  <symbol id="icon-md__layers__filled" viewBox="0 0 24 24">
    <path d="M0 0h24v24H0z" fill="none"/>
    <path d="M11.99 18.54l-7.37-5.73L3 14.07l9 7 9-7-1.63-1.27-7.38 5.74zM12 16l7.36-5.73L21 9l-9-7-9 7 1.63 1.27L12 16z"/>
  </symbol>

  <symbol id="icon-md__event_seat__filled" viewBox="0 0 24 24">
    <defs>
      <path id="a" d="M0 0h24v24H0V0z"/>
    </defs>
    <clipPath id="b">
      <use xlink:href="#a" overflow="visible"/>
    </clipPath>
    <path d="M4 18v3h3v-3h10v3h3v-6H4zm15-8h3v3h-3zM2 10h3v3H2zm15 3H7V5c0-1.1.9-2 2-2h6c1.1 0 2 .9 2 2v8z" clip-path="url(#b)"/>
  </symbol>

  <symbol id="icon-md__meeting_room__filled" viewBox="0 0 24 24">
    <path d="M14 6v15H3v-2h2V3h9v1h5v15h2v2h-4V6h-3zm-4 5v2h2v-2h-2z"/>
  </symbol>

  <symbol id="icon-meeting-room" viewBox="0 0 24 23">
    <path d="M14.1721212,2.06510638 C14.1740833,2.90278571 13.6756412,3.65908341 12.9094264,3.98102254 C12.1432116,4.30296167 11.260285,4.1270712 10.6727234,3.53544221 C10.0851617,2.94381322 9.90880418,2.05308667 10.2259597,1.27897972 C10.5431153,0.504872778 11.2912561,2.34082467e-06 12.1212121,0 C13.2514565,0.00133967851 14.1681188,0.924347434 14.1721212,2.06510638 Z M24,16.2443617 L24,17.9204255 C24,18.2015032 23.774243,18.4293617 23.4957576,18.4293617 L20.1793939,18.4293617 L20.7466667,20.8761702 C20.8623357,21.3918211 20.7393989,21.9325804 20.4125704,22.3457519 C20.0857419,22.7589234 19.5904922,22.9996659 19.0666667,23 L5.17333333,23 C4.64672579,22.9999525 4.14903133,22.7569326 3.82214028,22.3402241 C3.49524923,21.9235157 3.37503039,21.3788429 3.49575758,20.8614894 L4.0630303,18.4146809 L0.746666667,18.4146809 C0.473764125,18.4147955 0.250296408,18.1957538 0.242424242,17.9204255 L0.242424242,16.3471277 C0.220860876,14.9329881 1.287376,13.7432355 2.68363636,13.6238298 C3.56262182,13.5682561 4.40959158,13.9662052 4.93333333,14.6808511 L6.00969697,10.056383 C6.1896651,9.28273016 6.87324489,8.73563887 7.66060606,8.73510638 L8.29090909,8.73510638 L8.29090909,6.4987234 C8.29090909,5.55278889 9.0506683,4.78595745 9.98787879,4.78595745 L10.5939394,4.78595745 L11.9369697,6.14148936 C11.9856809,6.19109827 12.0520122,6.21900592 12.1212121,6.21900592 C12.1904121,6.21900592 12.2567434,6.19109827 12.3054545,6.14148936 L13.6484848,4.78595745 L14.2593939,4.78595745 C15.1966044,4.78595745 15.9563636,5.55278889 15.9563636,6.4987234 L15.9563636,8.73755319 L16.5866667,8.73755319 C17.3733106,8.73781798 18.0566477,9.28370222 18.2375758,10.056383 L19.3212121,14.7053191 C19.7641969,14.0662146 20.4701806,13.6640527 21.2412121,13.6115957 C21.9590493,13.5683397 22.6626464,13.8266663 23.1851725,14.3253234 C23.7076987,14.8239804 24.0026173,15.5185572 24,16.2443617 Z M18.5575758,20.8590426 L16.2424242,10.8858511 L8,10.8858511 L5.68484848,20.8590426 L8.24242424,20.8590426 L8.24242424,19.6209574 C8.24236421,18.6718047 8.99905495,17.8993419 9.93939394,17.888617 L14.3030303,17.888617 C15.2433693,17.8993419 16.00006,18.6718047 16,19.6209574 L16,20.8590426 L18.5575758,20.8590426 Z M21.3963636,12.8065957 C22.5785877,12.8065957 23.5369697,11.8392927 23.5369697,10.6460638 C23.5369697,9.452835 22.5785877,8.48553191 21.3963636,8.48553191 C20.2141396,8.48553191 19.2557576,9.452835 19.2557576,10.6460638 C19.2557576,11.8392927 20.2141396,12.8065957 21.3963636,12.8065957 Z M0.705454545,10.6460638 C0.705454545,11.8392927 1.66383652,12.8065957 2.84606061,12.8065957 C4.02828469,12.8065957 4.98666667,11.8392927 4.98666667,10.6460638 C4.98666667,9.452835 4.02828469,8.48553191 2.84606061,8.48553191 C1.66383652,8.48553191 0.705454545,9.452835 0.705454545,10.6460638 Z M12.1212121,12.4615957 C11.2282831,12.4616006 10.4234171,13.0048909 10.0823913,13.8378143 C9.74136559,14.6707376 9.93144359,15.6290093 10.5638814,16.2652298 C11.1963191,16.9014503 12.1463755,17.0901322 12.9704865,16.7431835 C13.7945974,16.3962347 14.3302164,15.582087 14.3272727,14.6808511 C14.3245978,13.4534433 13.3373021,12.4602425 12.1212121,12.4615957 Z"/>
  </symbol>

  <symbol id="icon-md__directions__filled" viewBox="0 0 24 24">
    <path d="M21.71 11.29l-9-9c-.39-.39-1.02-.39-1.41 0l-9 9c-.39.39-.39 1.02 0 1.41l9 9c.39.39 1.02.39 1.41 0l9-9c.39-.38.39-1.01 0-1.41zM14 14.5V12h-4v3H8v-4c0-.55.45-1 1-1h5V7.5l3.5 3.5-3.5 3.5z"/>
    <path d="M0 0h24v24H0z" fill="none"/>
  </symbol>

  <symbol id="icon-md__restaurant__filled" viewBox="0 0 24 24">
    <path d="M11 9H9V2H7v7H5V2H3v7c0 2.12 1.66 3.84 3.75 3.97V22h2.5v-9.03C11.34 12.84 13 11.12 13 9V2h-2v7zm5-3v8h2.5v8H21V2c-2.76 0-5 2.24-5 4z"/>
    <path fill="none" d="M0 0h24v24H0z"/>
  </symbol>

  <symbol id="icon-md__local_grocery_store__filled" viewBox="0 0 24 24">
    <path d="M7 18c-1.1 0-1.99.9-1.99 2S5.9 22 7 22s2-.9 2-2-.9-2-2-2zM1 2v2h2l3.6 7.59-1.35 2.45c-.16.28-.25.61-.25.96 0 1.1.9 2 2 2h12v-2H7.42c-.14 0-.25-.11-.25-.25l.03-.12.9-1.63h7.45c.75 0 1.41-.41 1.75-1.03l3.58-6.49c.08-.14.12-.31.12-.48 0-.55-.45-1-1-1H5.21l-.94-2H1zm16 16c-1.1 0-1.99.9-1.99 2s.89 2 1.99 2 2-.9 2-2-.9-2-2-2z"/>
    <path d="M0 0h24v24H0z" fill="none"/>
  </symbol>

  <symbol id="icon-md__local_bar__filled" viewBox="0 0 24 24">
    <path d="M21 5V3H3v2l8 9v5H6v2h12v-2h-5v-5l8-9zM7.43 7L5.66 5h12.69l-1.78 2H7.43z"/>
    <path fill="none" d="M0 0h24v24H0z"/>
  </symbol>

  <symbol id="icon-md__directions_bike__filled" viewBox="0 0 24 24">
    <path fill="none" d="M0 0h24v24H0z"/>
    <path d="M15.5 5.5c1.1 0 2-.9 2-2s-.9-2-2-2-2 .9-2 2 .9 2 2 2zM5 12c-2.8 0-5 2.2-5 5s2.2 5 5 5 5-2.2 5-5-2.2-5-5-5zm0 8.5c-1.9 0-3.5-1.6-3.5-3.5s1.6-3.5 3.5-3.5 3.5 1.6 3.5 3.5-1.6 3.5-3.5 3.5zm5.8-10l2.4-2.4.8.8c1.3 1.3 3 2.1 5.1 2.1V9c-1.5 0-2.7-.6-3.6-1.5l-1.9-1.9c-.5-.4-1-.6-1.6-.6s-1.1.2-1.4.6L7.8 8.4c-.4.4-.6.9-.6 1.4 0 .6.2 1.1.6 1.4L11 14v5h2v-6.2l-2.2-2.3zM19 12c-2.8 0-5 2.2-5 5s2.2 5 5 5 5-2.2 5-5-2.2-5-5-5zm0 8.5c-1.9 0-3.5-1.6-3.5-3.5s1.6-3.5 3.5-3.5 3.5 1.6 3.5 3.5-1.6 3.5-3.5 3.5z"/>
  </symbol>

  <symbol id="icon-md__directions_bus__filled" viewBox="0 0 24 24">
    <path d="M0 0h24v24H0z" fill="none"/>
    <path d="M4 16c0 .88.39 1.67 1 2.22V20c0 .55.45 1 1 1h1c.55 0 1-.45 1-1v-1h8v1c0 .55.45 1 1 1h1c.55 0 1-.45 1-1v-1.78c.61-.55 1-1.34 1-2.22V6c0-3.5-3.58-4-8-4s-8 .5-8 4v10zm3.5 1c-.83 0-1.5-.67-1.5-1.5S6.67 14 7.5 14s1.5.67 1.5 1.5S8.33 17 7.5 17zm9 0c-.83 0-1.5-.67-1.5-1.5s.67-1.5 1.5-1.5 1.5.67 1.5 1.5-.67 1.5-1.5 1.5zm1.5-6H6V6h12v5z"/>
  </symbol>

  <symbol id="icon-md__boat__filled" viewBox="0 0 24 24">
    <path d="M0 0h24v24H0z" fill="none"/>
    <path d="M20 21c-1.39 0-2.78-.47-4-1.32-2.44 1.71-5.56 1.71-8 0C6.78 20.53 5.39 21 4 21H2v2h2c1.38 0 2.74-.35 4-.99 2.52 1.29 5.48 1.29 8 0 1.26.65 2.62.99 4 .99h2v-2h-2zM3.95 19H4c1.6 0 3.02-.88 4-2 .98 1.12 2.4 2 4 2s3.02-.88 4-2c.98 1.12 2.4 2 4 2h.05l1.89-6.68c.08-.26.06-.54-.06-.78s-.34-.42-.6-.5L20 10.62V6c0-1.1-.9-2-2-2h-3V1H9v3H6c-1.1 0-2 .9-2 2v4.62l-1.29.42c-.26.08-.48.26-.6.5s-.15.52-.06.78L3.95 19zM6 6h12v3.97L12 8 6 9.97V6z"/>
  </symbol>

  <symbol id="icon-md__tram__filled" viewBox="0 0 24 24">
    <path d="M19 16.94V8.5c0-2.79-2.61-3.4-6.01-3.49l.76-1.51H17V2H7v1.5h4.75l-.76 1.52C7.86 5.11 5 5.73 5 8.5v8.44c0 1.45 1.19 2.66 2.59 2.97L6 21.5v.5h2.23l2-2H14l2 2h2v-.5L16.5 20h-.08c1.69 0 2.58-1.37 2.58-3.06zm-7 1.56c-.83 0-1.5-.67-1.5-1.5s.67-1.5 1.5-1.5 1.5.67 1.5 1.5-.67 1.5-1.5 1.5zm5-4.5H7V9h10v5z"/>
    <path fill="none" d="M0 0h24v24H0V0z"/>
  </symbol>

  <symbol id="icon-md__close__filled" viewBox="0 0 24 24">
    <path d="M19 6.41L17.59 5 12 10.59 6.41 5 5 6.41 10.59 12 5 17.59 6.41 19 12 13.41 17.59 19 19 17.59 13.41 12z"/>
    <path d="M0 0h24v24H0z" fill="none"/>
  </symbol>

  <symbol id="icon-md__remove_red_eye__filled" viewBox="0 0 24 24">
    <path d="M0 0h24v24H0z" fill="none"/>
    <path d="M12 4.5C7 4.5 2.73 7.61 1 12c1.73 4.39 6 7.5 11 7.5s9.27-3.11 11-7.5c-1.73-4.39-6-7.5-11-7.5zM12 17c-2.76 0-5-2.24-5-5s2.24-5 5-5 5 2.24 5 5-2.24 5-5 5zm0-8c-1.66 0-3 1.34-3 3s1.34 3 3 3 3-1.34 3-3-1.34-3-3-3z"/>
  </symbol>

  <symbol id="icon-md__event__filled" viewBox="0 0 24 24">
    <path d="M17 12h-5v5h5v-5zM16 1v2H8V1H6v2H5c-1.11 0-1.99.9-1.99 2L3 19c0 1.1.89 2 2 2h14c1.1 0 2-.9 2-2V5c0-1.1-.9-2-2-2h-1V1h-2zm3 18H5V8h14v11z"/>
    <path d="M0 0h24v24H0z" fill="none"/>
  </symbol>

  <symbol id="icon-md__access_time__filled" viewBox="0 0 24 24">
    <path d="M11.99 2C6.47 2 2 6.48 2 12s4.47 10 9.99 10C17.52 22 22 17.52 22 12S17.52 2 11.99 2zM12 20c-4.42 0-8-3.58-8-8s3.58-8 8-8 8 3.58 8 8-3.58 8-8 8z"/>
    <path d="M0 0h24v24H0z" fill="none"/>
    <path d="M12.5 7H11v6l5.25 3.15.75-1.23-4.5-2.67z"/>
  </symbol>

  <symbol id="icon-md__arrow_upward__filled" viewBox="0 0 24 24">
    <path fill="none" d="M0 0h24v24H0V0z"/>
    <path d="M4 12l1.41 1.41L11 7.83V20h2V7.83l5.58 5.59L20 12l-8-8-8 8z"/>
  </symbol>

  <symbol id="icon-md__arrow_downward__filled" viewBox="0 0 24 24">
    <path fill="none" d="M0 0h24v24H0V0z"/>
    <path fill="#010101" d="M20 12l-1.41-1.41L13 16.17V4h-2v12.17l-5.58-5.59L4 12l8 8 8-8z"/>
  </symbol>

  <symbol id="icon-md__local_activity__filled" viewBox="0 0 24 24">
    <path d="M0 0h24v24H0z" fill="none"/>
    <path d="M20 12c0-1.1.9-2 2-2V6c0-1.1-.9-2-2-2H4c-1.1 0-1.99.9-1.99 2v4c1.1 0 1.99.9 1.99 2s-.89 2-2 2v4c0 1.1.9 2 2 2h16c1.1 0 2-.9 2-2v-4c-1.1 0-2-.9-2-2zm-4.42 4.8L12 14.5l-3.58 2.3 1.08-4.12-3.29-2.69 4.24-.25L12 5.8l1.54 3.95 4.24.25-3.29 2.69 1.09 4.11z"/>
  </symbol>

  <symbol id="icon-md__arrow_down__filled" viewBox="0 0 24 24">
    <path d="M7.41,8.59L12,13.17l4.59-4.58L18,10l-6,6l-6-6L7.41,8.59z"/>
  </symbol>

  <symbol id="icon-md__arrow_up__filled" viewBox="0 0 24 24">
    <path d="M7.41 15.41L12 10.83l4.59 4.58L18 14l-6-6-6 6z"/>
  </symbol>

  <symbol id="icon-md__help_outline__filled" viewBox="0 0 24 24">
    <path fill="none" d="M0 0h24v24H0z"/>
    <path d="M11 18h2v-2h-2v2zm1-16C6.48 2 2 6.48 2 12s4.48 10 10 10 10-4.48 10-10S17.52 2 12 2zm0 18c-4.41 0-8-3.59-8-8s3.59-8 8-8 8 3.59 8 8-3.59 8-8 8zm0-14c-2.21 0-4 1.79-4 4h2c0-1.1.9-2 2-2s2 .9 2 2c0 2-3 1.75-3 5h2c0-2.25 3-2.5 3-5 0-2.21-1.79-4-4-4z"/>
  </symbol>

  <symbol id="icon-md__arrow_drop_down__filled" viewBox="0 0 24 24">
    <path d="M7 10l5 5 5-5z"/>
    <path d="M0 0h24v24H0z" fill="none"/>
  </symbol>

  <symbol id="icon-md__mail__filled" viewBox="0 0 24 24">
    <path d="M20 4H4c-1.1 0-1.99.9-1.99 2L2 18c0 1.1.9 2 2 2h16c1.1 0 2-.9 2-2V6c0-1.1-.9-2-2-2zm0 4l-8 5-8-5V6l8 5 8-5v2z"/>
    <path d="M0 0h24v24H0z" fill="none"/>
  </symbol>

  <symbol id="icon-md__lock__filled" viewBox="0 0 24 24">
    <path d="M0 0h24v24H0z" fill="none"/>
    <path d="M18 8h-1V6c0-2.76-2.24-5-5-5S7 3.24 7 6v2H6c-1.1 0-2 .9-2 2v10c0 1.1.9 2 2 2h12c1.1 0 2-.9 2-2V10c0-1.1-.9-2-2-2zm-6 9c-1.1 0-2-.9-2-2s.9-2 2-2 2 .9 2 2-.9 2-2 2zm3.1-9H8.9V6c0-1.71 1.39-3.1 3.1-3.1 1.71 0 3.1 1.39 3.1 3.1v2z"/>
  </symbol>

  <symbol id="icon-md__security__filled" viewBox="0 0 24 24">
    <path d="M12 1L3 5v6c0 5.55 3.84 10.74 9 12 5.16-1.26 9-6.45 9-12V5l-9-4zm0 10.99h7c-.53 4.12-3.28 7.79-7 8.94V12H5V6.3l7-3.11v8.8z"/>
    <path d="M0 0h24v24H0z" fill="none"/>
  </symbol>

  <symbol id="icon-md__delete_forever__filled" viewBox="0 0 24 24">
    <path fill="none" d="M0 0h24v24H0V0z"/>
    <path d="M6 19c0 1.1.9 2 2 2h8c1.1 0 2-.9 2-2V7H6v12zm2.46-7.12l1.41-1.41L12 12.59l2.12-2.12 1.41 1.41L13.41 14l2.12 2.12-1.41 1.41L12 15.41l-2.12 2.12-1.41-1.41L10.59 14l-2.13-2.12zM15.5 4l-1-1h-5l-1 1H5v2h14V4z"/>
    <path fill="none" d="M0 0h24v24H0z"/>
  </symbol>

  <symbol id="icon-md__file_copy__outlined" viewBox="0 0 24 24">
    <path d="M16,1H4C2.9,1,2,1.9,2,3v14h2V3h12V1z"/>
    <path d="M15,5H8C6.9,5,6.01,5.9,6.01,7L6,21c0,1.1,0.89,2,1.99,2H19c1.1,0,2-0.9,2-2V11L15,5z M8,21V7h6v5h5v9L8,21z"/>
  </symbol>

  <symbol id="icon-md__create__filled" viewBox="0 0 24 24">
    <path d="M3 17.25V21h3.75L17.81 9.94l-3.75-3.75L3 17.25zM20.71 7.04c.39-.39.39-1.02 0-1.41l-2.34-2.34c-.39-.39-1.02-.39-1.41 0l-1.83 1.83 3.75 3.75 1.83-1.83z"/>
    <path d="M0 0h24v24H0z" fill="none"/>
  </symbol>

  <symbol id="icon-md__save_alt__filled" viewBox="0 0 24 24">
    <path fill="none" d="M0,0h24v24H0V0z"/>
    <path d="M19,12v7H5v-7H3v7c0,1.1,0.9,2,2,2h14c1.1,0,2-0.9,2-2v-7H19z M13,12.67l2.59-2.58L17,11.5l-5,5l-5-5l1.41-1.41L11,12.67V3 h2V12.67z"/>
  </symbol>

  <symbol id="icon-md__block__filled" viewBox="0 0 24 24">
    <path fill="none" d="M0,0h24v24H0V0z"/>
    <path d="M12,2C6.48,2,2,6.48,2,12s4.48,10,10,10s10-4.48,10-10S17.52,2,12,2z M4,12c0-4.42,3.58-8,8-8c1.85,0,3.55,0.63,4.9,1.69 L5.69,16.9C4.63,15.55,4,13.85,4,12z M12,20c-1.85,0-3.55-0.63-4.9-1.69L18.31,7.1C19.37,8.45,20,10.15,20,12 C20,16.42,16.42,20,12,20z"/>
  </symbol>

  <symbol id="icon-md__help__outlined" viewBox="0 0 24 24">
    <path fill="none" d="M0,0h24v24H0V0z"/>
    <path d="M11,18h2v-2h-2V18z M12,2C6.48,2,2,6.48,2,12s4.48,10,10,10s10-4.48,10-10S17.52,2,12,2z M12,20c-4.41,0-8-3.59-8-8 s3.59-8,8-8s8,3.59,8,8S16.41,20,12,20z M12,6c-2.21,0-4,1.79-4,4h2c0-1.1,0.9-2,2-2s2,0.9,2,2c0,2-3,1.75-3,5h2c0-2.25,3-2.5,3-5 C16,7.79,14.21,6,12,6z"/>
  </symbol>

  <symbol id="icon-md__file_copy__outlined" viewBox="0 0 24 24">
    <path d="M16,1H4C2.9,1,2,1.9,2,3v14h2V3h12V1z"/>
    <path
      d="M15,5H8C6.9,5,6.01,5.9,6.01,7L6,21c0,1.1,0.89,2,1.99,2H19c1.1,0,2-0.9,2-2V11L15,5z M8,21V7h6v5h5v9L8,21z"/>
  </symbol>

  <symbol id="icon-md__assignment__filled" viewBox="0 0 24 24">
    <path d="M0 0h24v24H0z" fill="none"/>
    <path d="M19 3h-4.18C14.4 1.84 13.3 1 12 1c-1.3 0-2.4.84-2.82 2H5c-1.1 0-2 .9-2 2v14c0 1.1.9 2 2 2h14c1.1 0 2-.9 2-2V5c0-1.1-.9-2-2-2zm-7 0c.55 0 1 .45 1 1s-.45 1-1 1-1-.45-1-1 .45-1 1-1zm0 4c1.66 0 3 1.34 3 3s-1.34 3-3 3-3-1.34-3-3 1.34-3 3-3zm6 12H6v-1.4c0-2 4-3.1 6-3.1s6 1.1 6 3.1V19z"/>
  </symbol>

  <symbol id="icon-md__schedule__outlined" viewBox="0 0 24 24">
    <path d="M11.99 2C6.47 2 2 6.48 2 12s4.47 10 9.99 10C17.52 22 22 17.52 22 12S17.52 2 11.99 2zM12 20c-4.42 0-8-3.58-8-8s3.58-8 8-8 8 3.58 8 8-3.58 8-8 8z"/>
    <path d="M0 0h24v24H0z" fill="none"/>
    <path d="M12.5 7H11v6l5.25 3.15.75-1.23-4.5-2.67z"/>
  </symbol>

  <symbol id="icon-md__check" viewBox="0 0 24 24">
    <path d="M0 0h24v24H0z" fill="none"/><path d="M9 16.17L4.83 12l-1.42 1.41L9 19 21 7l-1.41-1.41z"/>
  </symbol>

  <symbol id="icon-md__check_circle__outlined" viewBox="0 0 24 24">
    <path fill="none" d="M0 0h24v24H0V0z"/>
    <path d="M12 2C6.48 2 2 6.48 2 12s4.48 10 10 10 10-4.48 10-10S17.52 2 12 2zm0 18c-4.41 0-8-3.59-8-8s3.59-8 8-8 8 3.59 8 8-3.59 8-8 8zm4.59-12.42L10 14.17l-2.59-2.58L6 13l4 4 8-8z"/>
  </symbol>

  <symbol id="icon-md__check_circle__filled" viewBox="0 0 24 24">
    <path d="M0 0h24v24H0z" fill="none"/>
    <path d="M12 2C6.48 2 2 6.48 2 12s4.48 10 10 10 10-4.48 10-10S17.52 2 12 2zm-2 15l-5-5 1.41-1.41L10 14.17l7.59-7.59L19 8l-9 9z"/>
  </symbol>

  <symbol id="icon-md__link__outlined" viewBox="0 0 24 24">
    <path d="M17,7h-4v2h4c1.65,0,3,1.35,3,3c0,1.65-1.35,3-3,3h-4v2h4c2.76,0,5-2.24,5-5S19.76,7,17,7z"/>
    <path d="M11,15H7c-1.65,0-3-1.35-3-3c0-1.65,1.35-3,3-3h4V7H7c-2.76,0-5,2.24-5,5s2.24,5,5,5h4V15z"/>
    <rect x="8" y="11" width="8" height="2"/>
  </symbol>

  <symbol id="icon-md__link_off__outlined" viewBox="0 0 24 24">
    <polygon points="14.39,11 16,12.61 16,11"/>
    <path d="M17,7h-4v1.9h4c1.71,0,3.1,1.39,3.1,3.1c0,1.27-0.77,2.37-1.87,2.84l1.4,1.4C21.05,15.36,22,13.79,22,12
      C22,9.24,19.76,7,17,7z"/>
    <path d="M2,4.27l3.11,3.11C3.29,8.12,2,9.91,2,12c0,2.76,2.24,5,5,5h4v-1.9H7c-1.71,0-3.1-1.39-3.1-3.1c0-1.59,1.21-2.9,2.76-3.07
      L8.73,11H8v2h2.73L13,15.27V17h1.73l4.01,4.01l1.41-1.41L3.41,2.86L2,4.27z"/>
  </symbol>

  <symbol id="icon-md__content_copy__outlined" viewBox="0 0 24 24">
    <path d="M16 1H4c-1.1 0-2 .9-2 2v14h2V3h12V1zm3 4H8c-1.1 0-2 .9-2 2v14c0 1.1.9 2 2 2h11c1.1 0 2-.9 2-2V7c0-1.1-.9-2-2-2zm0 16H8V7h11v14z"/>
  </symbol>

  <symbol id="icon-md__info__outlined" viewBox="0 0 24 24">
    <rect x="11" y="7" width="2" height="2"/>
    <rect x="11" y="11" width="2" height="6"/>
    <path d="M12,2C6.48,2,2,6.48,2,12c0,5.52,4.48,10,10,10s10-4.48,10-10C22,6.48,17.52,2,12,2z M12,20c-4.41,0-8-3.59-8-8
    c0-4.41,3.59-8,8-8s8,3.59,8,8C20,16.41,16.41,20,12,20z"/>
  </symbol>

  <symbol id="icon-md__save_alt__outlined" viewBox="0 0 24 24">
    <path fill="none" d="M0,0h24v24H0V0z"/>
    <path d="M19,12v7H5v-7H3v7c0,1.1,0.9,2,2,2h14c1.1,0,2-0.9,2-2v-7H19z M13,12.67l2.59-2.58L17,11.5l-5,5l-5-5l1.41-1.41L11,12.67V3
    h2V12.67z"/>
  </symbol>

  <symbol id="icon-md__add__outlined" viewBox="0 0 24 24">
    <path fill="none" d="M0,0h24v24H0V0z"/>
    <path d="M19,13h-6v6h-2v-6H5v-2h6V5h2v6h6V13z"/>
  </symbol>

  <symbol id="icon-md__insert_drive_file__filled" viewBox="0 0 24 24">
    <path d="M6 2c-1.1 0-1.99.9-1.99 2L4 20c0 1.1.89 2 1.99 2H18c1.1 0 2-.9 2-2V8l-6-6H6zm7 7V3.5L18.5 9H13z"/>
    <path d="M0 0h24v24H0z" fill="none"/>
  </symbol>

  <symbol id="icon-md__arrow_back__filled" viewBox="0 0 24 24">
    <path d="M20 11H7.83l5.59-5.59L12 4l-8 8 8 8 1.41-1.41L7.83 13H20v-2z"/>
  </symbol>

  <symbol id="icon-md__arrow_forward__filled" viewBox="0 0 24 24">
    <path d="M12 4l-1.41 1.41L16.17 11H4v2h12.17l-5.58 5.59L12 20l8-8z"/>
  </symbol>

  <symbol id="icon-md__more_vert__outlined" viewBox="0 0 24 24">
    <path d="M12,8c1.1,0,2-0.9,2-2s-0.9-2-2-2s-2,0.9-2,2S10.9,8,12,8z M12,10c-1.1,0-2,0.9-2,2s0.9,2,2,2s2-0.9,2-2S13.1,10,12,10z
     M12,16c-1.1,0-2,0.9-2,2s0.9,2,2,2s2-0.9,2-2S13.1,16,12,16z"/>
  </symbol>

  <symbol id="icon-md__event_busy__filled" viewBox="0 0 24 24">
    <path d="M0 0h24v24H0z" fill="none"/>
    <path d="M9.31 17l2.44-2.44L14.19 17l1.06-1.06-2.44-2.44 2.44-2.44L14.19 10l-2.44 2.44L9.31 10l-1.06 1.06 2.44 2.44-2.44 2.44L9.31 17zM19 3h-1V1h-2v2H8V1H6v2H5c-1.11 0-1.99.9-1.99 2L3 19c0 1.1.89 2 2 2h14c1.1 0 2-.9 2-2V5c0-1.1-.9-2-2-2zm0 16H5V8h14v11z"/>
  </symbol>

  <symbol id="icon_md__more_horiz" viewBox="0 0 24 24">
    <path d="M6 10c-1.1 0-2 .9-2 2s.9 2 2 2 2-.9 2-2-.9-2-2-2zm12 0c-1.1 0-2 .9-2 2s.9 2 2 2 2-.9 2-2-.9-2-2-2zm-6 0c-1.1 0-2 .9-2 2s.9 2 2 2 2-.9 2-2-.9-2-2-2z"/>
  </symbol>

  <symbol id="icon-md__swap-horiz" viewBox="0 0 24 24">
    <path d="M6.99 11L3 15l3.99 4v-3H14v-2H6.99v-3zM21 9l-3.99-4v3H10v2h7.01v3L21 9z"/>
  </symbol>

  <symbol id="icon-md__compare_arrows" viewBox="0 0 24 24">
    <clipPath id="b">
        <use xlink:href="#a" overflow="visible"/>
    </clipPath>
    <path clip-path="url(#b)" d="M9.01 14H2v2h7.01v3L13 15l-3.99-4v3zm5.98-1v-3H22V8h-7.01V5L11 9l3.99 4z"/>
  </symbol>

  <symbol id="icon-md__withdraw" viewBox="0 0 24 24" >
    <path d="M19,12v7H5v-7H3v7c0,1.1,0.9,2,2,2h14c1.1,0,2-0.9,2-2v-7H19z M13,6.8l2.6,2.6L17,8l-5-5L7,8l1.4,1.4L11,6.8v9.7h2V6.8z"/>
  </symbol>

  <symbol id="icon-md__toll" viewBox="0 0 24 24">
    <path d="M15 4c-4.42 0-8 3.58-8 8s3.58 8 8 8 8-3.58 8-8-3.58-8-8-8zm0 14c-3.31 0-6-2.69-6-6s2.69-6 6-6 6 2.69 6 6-2.69 6-6 6z"/>
    <path d="M3 12c0-2.61 1.67-4.83 4-5.65V4.26C3.55 5.15 1 8.27 1 12s2.55 6.85 6 7.74v-2.09c-2.33-.82-4-3.04-4-5.65z"/>
  </symbol>

  <symbol id="icon-md__clear" viewBox="0 0 24 24">
    <path d="M19 6.41L17.59 5 12 10.59 6.41 5 5 6.41 10.59 12 5 17.59 6.41 19 12 13.41 17.59 19 19 17.59 13.41 12z"/>
  </symbol>

  <symbol id="icon-facebook" viewBox="0 0 24 24">
    <path d="M12,22 C6.47715224,22 2,17.5228478 2,12 C2,6.47715224 6.47715224,2 12,2 C17.5228478,2 22,6.47715224 22,12 C22,17.5228478 17.5228478,22 12,22 Z M12,20.8 C16.860106,20.8 20.8,16.860106 20.8,12 C20.8,7.13989396 16.860106,3.2 12,3.2 C7.13989396,3.2 3.2,7.13989396 3.2,12 C3.2,16.860106 7.13989396,20.8 12,20.8 Z M12.7258079,16.4 L12.7258079,11.9994848 L14.027498,11.9994848 L14.2,10.4830429 L12.7258079,10.4830429 L12.7280194,9.72404908 C12.7280194,9.32853768 12.7682884,9.11661364 13.3770215,9.11661364 L14.1907852,9.11661364 L14.1907852,7.6 L12.8889108,7.6 C11.3251503,7.6 10.7747471,8.33563748 10.7747471,9.57274836 L10.7747471,10.4832146 L9.8,10.4832146 L9.8,11.9996565 L10.7747471,11.9996565 L10.7747471,16.4 L12.7258079,16.4 Z" fill-rule="nonzero"></path>
  </symbol>

  <symbol id="icon-twitter" viewBox="0 0 24 24">
    <path d="M12,22 C6.47715224,22 2,17.5228478 2,12 C2,6.47715224 6.47715224,2 12,2 C17.5228478,2 22,6.47715224 22,12 C22,17.5228478 17.5228478,22 12,22 Z M12,20.8 C16.860106,20.8 20.8,16.860106 20.8,12 C20.8,7.13989396 16.860106,3.2 12,3.2 C7.13989396,3.2 3.2,7.13989396 3.2,12 C3.2,16.860106 7.13989396,20.8 12,20.8 Z M11.8729022,10.221719 L11.8919776,10.5504404 L11.5740533,10.5101888 C10.416809,10.355891 9.40580984,9.83262016 8.54741432,8.95379348 L8.12775428,8.51773444 L8.01966004,8.83974724 C7.79075456,9.55756752 7.93699972,10.3156394 8.41388612,10.825493 C8.66822552,11.1072543 8.61099916,11.1475059 8.17226368,10.9797909 C8.01966004,10.926122 7.88613184,10.8858704 7.87341484,10.9059963 C7.82890548,10.9529565 7.98150912,11.5634391 8.10232032,11.8049488 C8.26764096,12.1403788 8.60464068,12.4691002 8.9734328,12.6636496 L9.2849986,12.8179474 L8.91620644,12.824656 C8.56013128,12.824656 8.54741432,12.8313646 8.58556524,12.9722452 C8.71273496,13.4083043 9.21505528,13.8711978 9.774602,14.0724558 L10.168828,14.2133364 L9.82546984,14.4280116 C9.31679104,14.7366072 8.7190934,14.9110309 8.1213958,14.9244481 C7.83526396,14.9311566 7.6,14.957991 7.6,14.9781169 C7.6,15.0452028 8.3757352,15.4208845 8.82718768,15.5684737 C10.181545,16.0045328 11.7902418,15.8166919 12.998354,15.0720373 C13.8567496,14.5420578 14.7151451,13.4888075 15.1157297,12.4691002 C15.3319182,11.9257036 15.5481067,10.9328307 15.5481067,10.45652 C15.5481067,10.1479244 15.5671821,10.1076728 15.9232573,9.73869976 C16.1330873,9.52402452 16.3302004,9.28922352 16.3683513,9.22213748 C16.4319361,9.09467408 16.4255777,9.09467408 16.1012949,9.20872028 C15.5608236,9.40997832 15.4845218,9.38314392 15.7515782,9.08125688 C15.9486912,8.86658164 16.1839552,8.47748284 16.1839552,8.3634366 C16.1839552,8.3433108 16.0885779,8.37685384 15.9804837,8.4372312 C15.8660309,8.50431724 15.6116915,8.60494624 15.420937,8.66532364 L15.0775788,8.77936984 L14.766013,8.557986 C14.5943338,8.4372312 14.3527114,8.3030592 14.2255417,8.2628076 C13.901259,8.1688872 13.4052971,8.1823044 13.1128068,8.289642 C12.3179961,8.59152904 11.8156758,9.36972672 11.8729022,10.221719 C11.8729022,10.221719 11.8156758,9.36972672 11.8729022,10.221719 Z" fill-rule="nonzero"></path>
  </symbol>

  <symbol id="icon-linkedin" viewBox="0 0 24 24">
    <path d="M12,22 C6.47715224,22 2,17.5228478 2,12 C2,6.47715224 6.47715224,2 12,2 C17.5228478,2 22,6.47715224 22,12 C22,17.5228478 17.5228478,22 12,22 Z M12,20.8 C16.860106,20.8 20.8,16.860106 20.8,12 C20.8,7.13989396 16.860106,3.2 12,3.2 C7.13989396,3.2 3.2,7.13989396 3.2,12 C3.2,16.860106 7.13989396,20.8 12,20.8 Z M7.6,10.0472192 L7.6,15.8632734 L9.48403404,15.8632734 L9.48403404,10.0472192 L7.6,10.0472192 Z M8.66587848,7.2 C8.02136232,7.2 7.6,7.63434444 7.6,8.20460488 C7.6,8.76305324 8.00890844,9.20990456 8.64142224,9.20990456 L8.65346224,9.20990456 C9.31039468,9.20990456 9.71952888,8.76305324 9.71952888,8.20460488 C9.70730076,7.63434444 9.31039468,7.2 8.66587848,7.2 Z M14.2307685,10.0472192 C13.2304704,10.0472192 12.78262,10.611728 12.5325643,11.0077411 L12.5325643,10.1839458 L10.6483046,10.1839458 C10.6731371,10.7296942 10.6483046,16 10.6483046,16 L12.5325643,16 L12.5325643,12.7518355 C12.5325643,12.5780128 12.5447925,12.4046147 12.594608,12.2801634 C12.7307728,11.932904 13.0408028,11.5733693 13.561307,11.5733693 C14.2433352,11.5733693 14.515966,12.1066881 14.515966,12.8882533 L14.515966,15.9998456 L16.3999248,15.9998456 L16.4,12.6650978 C16.4,10.8786576 15.4705497,10.0472192 14.2307685,10.0472192 Z"></path>
  </symbol>

  <symbol id="icon-sim-card" viewBox="0 0 24 24">
    <path d="M19.99 4c0-1.1-.89-2-1.99-2h-8L4 8v12c0 1.1.9 2 2 2h12.01c1.1 0 1.99-.9 1.99-2l-.01-16zM9 19H7v-2h2v2zm8 0h-2v-2h2v2zm-8-4H7v-4h2v4zm4 4h-2v-4h2v4zm0-6h-2v-2h2v2zm4 2h-2v-4h2v4z"/>
    <path d="M0 0h24v24H0z" fill="none"/>
  </symbol>

  <symbol id="icon-sd-card" viewBox="0 0 24 24">
    <path d="M0 0h24v24H0z" fill="none"/>
    <path d="M18 2h-8L4.02 8 4 20c0 1.1.9 2 2 2h12c1.1 0 2-.9 2-2V4c0-1.1-.9-2-2-2zm-6 6h-2V4h2v4zm3 0h-2V4h2v4zm3 0h-2V4h2v4z"/>
  </symbol>

  <symbol id="icon-reddit-colored" viewBox="0 0 24 24">
    <circle cx="12.003" cy="12.003" r="11.994" fill="#FF4500"></circle>
    <path fill="#FFF" d="M20.002 12.003a1.755 1.755 0 0 0-2.963-1.202 8.527 8.527 0 0 0-4.619-1.475l.779-3.742 2.566.54a1.199 1.199 0 1 0 .158-.734l-2.94-.587c-.199-.045-.399.08-.443.283v.006l-.886 4.162a8.591 8.591 0 0 0-4.678 1.476 1.749 1.749 0 0 0-2.474.077 1.749 1.749 0 0 0 .548 2.791 3.896 3.896 0 0 0 0 .528c0 2.686 3.13 4.871 6.992 4.871 3.86 0 6.991-2.182 6.991-4.871a3.896 3.896 0 0 0 0-.528 1.75 1.75 0 0 0 .969-1.595zM8.008 13.204c0-.661.54-1.201 1.201-1.201.662 0 1.202.54 1.202 1.201 0 .662-.54 1.202-1.202 1.202a1.206 1.206 0 0 1-1.201-1.202zm6.967 3.298a4.605 4.605 0 0 1-2.963.924 4.605 4.605 0 0 1-2.964-.924.324.324 0 1 1 .456-.456A3.918 3.918 0 0 0 12 16.8a3.948 3.948 0 0 0 2.507-.73.337.337 0 0 1 .474.006.337.337 0 0 1-.006.474v-.048zm-.214-2.054c-.662 0-1.202-.54-1.202-1.202 0-.662.54-1.201 1.202-1.201.662 0 1.201.54 1.201 1.201a1.2 1.2 0 0 1-1.15 1.246h-.06l.009-.044z"></path>
  </symbol>

  <symbol id="icon-telegram-colored" viewBox="0 0 24 24">
    <path d="M5.988 6h12.774v12.8H5.988z"></path>
    <ellipse cx="11.976" cy="12" fill="#2FAEE5" rx="11.976" ry="12"></ellipse>
    <path fill="#FFF" fill-rule="nonzero"
          d="M17.089 6.824L5.13 11.407c-.816.325-.811.778-.149.98l2.983.924 1.141 3.477c.139.38.07.53.473.53.31 0 .448-.14.62-.307l1.491-1.442 3.103 2.278c.57.313.983.15 1.125-.527l2.036-9.535c.209-.83-.318-1.207-.864-.96zM8.432 13.1l6.722-4.214c.336-.202.644-.094.391.13l-5.756 5.16-.224 2.374-1.133-3.45z"></path>
  </symbol>

  <symbol id="icon-youtube-colored" viewBox="0 0 24 24">
    <defs>
      <path id="a" d="M15 5.25V0H0v10.5h15z"></path>
    </defs>
    <g fill="none" fill-rule="evenodd">
      <path d="M5.988 6h12.774v12.8H5.988z"></path>
      <ellipse cx="11.976" cy="12" fill="#F00" rx="11.976" ry="12"></ellipse>
      <g transform="translate(4.5 6.75)">
        <mask id="b" fill="#fff">
          <use xlink:href="#a"></use>
        </mask>
        <path fill="#FFF"
              d="M5.966 7.466V3.034l3.92 2.216-3.92 2.216zm8.72-5.826A1.879 1.879 0 0 0 13.36.313C12.19 0 7.5 0 7.5 0S2.81 0 1.64.313A1.879 1.879 0 0 0 .313 1.64C0 2.81 0 5.25 0 5.25s0 2.44.313 3.61c.173.646.681 1.154 1.327 1.327 1.17.313 5.86.313 5.86.313s4.69 0 5.86-.313a1.879 1.879 0 0 0 1.327-1.327C15 7.69 15 5.25 15 5.25s0-2.44-.313-3.61z"
              mask="url(#b)"></path>
      </g>
    </g>
  </symbol>

  <symbol id="icon-medium-colored" viewBox="0 0 24 24">
    <ellipse cx="11.976" cy="12" fill="#FFF" rx="11.976" ry="12"></ellipse>
    <path fill="#000" fill-rule="nonzero" d="M7.423 9.336a.427.427 0 0 0-.151-.37L6.152 7.69V7.5H9.63l2.69 5.571L14.682 7.5H18v.19l-.958.868a.258.258 0 0 0-.106.254v6.376a.258.258 0 0 0 .106.254l.936.868v.19h-4.706v-.19l.969-.89c.095-.09.095-.116.095-.253v-5.154l-2.695 6.466h-.364L8.14 10.013v4.334a.577.577 0 0 0 .174.497l1.26 1.444v.19H6v-.19l1.26-1.444a.556.556 0 0 0 .163-.497V9.336z"></path>
  </symbol>

  <symbol id="icon-medium-colored-inverted" viewBox="0 0 32 32">
    <ellipse cx="15.968" cy="16" fill="#000" rx="15.968" ry="16"/>
    <path fill="#FFF" fill-rule="nonzero" d="M9.897 12.448a.569.569 0 0 0-.201-.494l-1.494-1.7V10h4.638l3.586 7.429L19.578 10H24v.254l-1.277 1.157a.343.343 0 0 0-.142.339v8.5a.343.343 0 0 0 .142.34l1.247 1.156V22h-6.274v-.254l1.292-1.185c.127-.12.127-.155.127-.339v-6.871l-3.593 8.62h-.486l-4.183-8.62v5.778a.77.77 0 0 0 .232.663l1.68 1.926v.254H8v-.254l1.68-1.926a.742.742 0 0 0 .217-.663v-6.681z"/>
  </symbol>

  <symbol id="icon-twitter-colored" viewBox="0 0 24 24">
    <path d="M5.988 6h12.774v12.8H5.988z"></path>
    <ellipse cx="11.976" cy="12" fill="#1DA1F2" rx="11.976" ry="12"></ellipse>
    <path fill="#FFF" d="M18.563 8.947c-.441.201-.916.333-1.409.396a2.465 2.465 0 0 0 1.076-1.365 4.94 4.94 0 0 1-1.557.602 2.416 2.416 0 0 0-1.809-.78 2.455 2.455 0 0 0-2.444 2.46c0 .196.023.385.063.563a6.976 6.976 0 0 1-5.06-2.57 2.438 2.438 0 0 0-.333 1.233c0 .855.43 1.612 1.094 2.042-.407 0-.784-.114-1.116-.286v.017c0 1.193.847 2.191 1.969 2.415a2.412 2.412 0 0 1-1.105.04 2.45 2.45 0 0 0 2.29 1.71 4.872 4.872 0 0 1-3.051 1.055c-.195 0-.39-.012-.584-.035a6.942 6.942 0 0 0 3.766 1.107c4.511 0 6.99-3.751 6.99-7.003 0-.11 0-.213-.006-.322.481-.344.893-.78 1.226-1.279z"></path>
  </symbol>

  <symbol id="icon-facebook-colored" viewBox="0 0 24 24">
    <circle cx="12" cy="12" r="12" fill="#3B5998"></circle>
    <path fill="#FFF" d="M12.895 18v-5.474h1.769l.264-2.133h-2.033V9.031c0-.618.165-1.038 1.017-1.038H15V6.083A14.004 14.004 0 0 0 13.415 6c-1.568 0-2.641.994-2.641 2.82v1.573H9v2.133h1.774V18h2.12z"></path>
  </symbol>

  <symbol id="icon-linkedin-colored" viewBox="0 0 48 48">
    <circle cx="24" cy="24" fill="#1686B0" r="24"/>
    <path d="M17.4,34.9h-4.6V20.1h4.6V34.9z M14.9,18.2L14.9,18.2c-1.7,0-2.8-1.1-2.8-2.6c0-1.5,1.1-2.6,2.8-2.6  c1.7,0,2.8,1.1,2.8,2.6C17.7,17.1,16.7,18.2,14.9,18.2z M35.9,34.9h-5.3v-7.7c0-2-0.8-3.4-2.6-3.4c-1.4,0-2.1,0.9-2.5,1.8  c-0.1,0.3-0.1,0.8-0.1,1.2v8h-5.2c0,0,0.1-13.6,0-14.8h5.2v2.3c0.3-1,2-2.5,4.6-2.5c3.3,0,5.9,2.1,5.9,6.7V34.9z" fill="#FFFFFF"/>
  </symbol>

  <symbol id="icon-instagram-colored" viewBox="0 0 24 24">
    <defs>
        <ellipse id="a" cx="11.976" cy="12" rx="11.976" ry="12"></ellipse>
        <rect id="c" width="24" height="24" rx="5.385"></rect>
        <filter id="d" width="137.5%" height="137.5%" x="-14.6%" y="-14.6%" filterUnits="objectBoundingBox">
            <feOffset dx="1" dy="1" in="SourceAlpha" result="shadowOffsetOuter1"></feOffset>
            <feGaussianBlur in="shadowOffsetOuter1" result="shadowBlurOuter1" stdDeviation="1"></feGaussianBlur>
            <feColorMatrix in="shadowBlurOuter1" result="shadowMatrixOuter1" values="0 0 0 0 0.0819534714 0 0 0 0 0.0854002486 0 0 0 0 0.0946534864 0 0 0 0.269248188 0"></feColorMatrix>
            <feOffset in="SourceAlpha" result="shadowOffsetOuter2"></feOffset>
            <feGaussianBlur in="shadowOffsetOuter2" result="shadowBlurOuter2" stdDeviation=".5"></feGaussianBlur>
            <feColorMatrix in="shadowBlurOuter2" result="shadowMatrixOuter2" values="0 0 0 0 1 0 0 0 0 1 0 0 0 0 1 0 0 0 0.5 0"></feColorMatrix>
            <feMerge>
                <feMergeNode in="shadowMatrixOuter1"></feMergeNode>
                <feMergeNode in="shadowMatrixOuter2"></feMergeNode>
            </feMerge>
        </filter>
        <linearGradient id="e" x1="17.939%" x2="83.162%" y1="15.466%" y2="85.204%">
            <stop offset="0%" stop-color="#395DFA"></stop>
            <stop offset="21.653%" stop-color="#544CED"></stop>
            <stop offset="44.764%" stop-color="#903ACD"></stop>
            <stop offset="68.339%" stop-color="#D53592"></stop>
            <stop offset="100%" stop-color="#F4306D"></stop>
        </linearGradient>
        <filter id="f" width="115.1%" height="115.1%" x="-7.5%" y="-7.5%" filterUnits="objectBoundingBox">
            <feGaussianBlur in="SourceGraphic" stdDeviation=".769"></feGaussianBlur>
        </filter>
        <filter id="h" width="190.1%" height="190.1%" x="-45%" y="-45%" filterUnits="objectBoundingBox">
            <feGaussianBlur in="SourceGraphic" stdDeviation="3.846"></feGaussianBlur>
        </filter>
        <filter id="i" width="152.4%" height="152.4%" x="-26.2%" y="-26.2%" filterUnits="objectBoundingBox">
            <feGaussianBlur in="SourceGraphic" stdDeviation="1.846"></feGaussianBlur>
        </filter>
        <filter id="j" width="155.7%" height="155.7%" x="-27.9%" y="-27.9%" filterUnits="objectBoundingBox">
            <feGaussianBlur in="SourceGraphic" stdDeviation="1.636"></feGaussianBlur>
        </filter>
        <filter id="k" width="170.9%" height="170.9%" x="-35.5%" y="-35.5%" filterUnits="objectBoundingBox">
            <feGaussianBlur in="SourceGraphic" stdDeviation="1.846"></feGaussianBlur>
        </filter>
        <filter id="l" width="264%" height="264%" x="-82%" y="-82%" filterUnits="objectBoundingBox">
            <feGaussianBlur in="SourceGraphic" stdDeviation="3.722"></feGaussianBlur>
        </filter>
        <path id="n" d="M3.876 0h5.748A3.876 3.876 0 0 1 13.5 3.876v5.748A3.876 3.876 0 0 1 9.624 13.5H3.876A3.876 3.876 0 0 1 0 9.624V3.876A3.876 3.876 0 0 1 3.876 0zM4 1.222a2.777 2.777 0 0 0-2.777 2.777v5.502a2.777 2.777 0 0 0 2.777 2.777h5.502a2.777 2.777 0 0 0 2.777-2.777V3.999a2.777 2.777 0 0 0-2.777-2.777H3.999z"></path>
        <filter id="m" width="122.2%" height="122.2%" x="-11.1%" y="-11.1%" filterUnits="objectBoundingBox">
            <feOffset in="SourceAlpha" result="shadowOffsetOuter1"></feOffset>
            <feGaussianBlur in="shadowOffsetOuter1" result="shadowBlurOuter1" stdDeviation=".5"></feGaussianBlur>
            <feColorMatrix in="shadowBlurOuter1" values="0 0 0 0 0 0 0 0 0 0 0 0 0 0 0 0 0 0 0.0624716938 0"></feColorMatrix>
        </filter>
        <path id="p" d="M6.75 10.183a3.433 3.433 0 1 1 0-6.866 3.433 3.433 0 0 1 0 6.866zm0-1.222a2.211 2.211 0 1 0 0-4.422 2.211 2.211 0 0 0 0 4.422z"></path>
        <filter id="o" width="143.7%" height="143.7%" x="-21.8%" y="-21.8%" filterUnits="objectBoundingBox">
            <feOffset in="SourceAlpha" result="shadowOffsetOuter1"></feOffset>
            <feGaussianBlur in="shadowOffsetOuter1" result="shadowBlurOuter1" stdDeviation=".5"></feGaussianBlur>
            <feColorMatrix in="shadowBlurOuter1" values="0 0 0 0 0 0 0 0 0 0 0 0 0 0 0 0 0 0 0.05 0"></feColorMatrix>
        </filter>
    </defs>
    <g fill="none" fill-rule="evenodd">
        <path d="M5.988 6h12.774v12.8H5.988z"></path>
        <g>
            <mask id="b" fill="#fff">
                <use xlink:href="#a"></use>
            </mask>
            <use fill="#FFF" xlink:href="#a"></use>
            <g mask="url(#b)">
                <path d="M17.46 10.154h1.31v1.313h-1.31z"></path>
                <ellipse cx="18.074" cy="10.769" fill="#1DA1F2" rx="1.228" ry="1.231"></ellipse>
                <mask id="g" fill="#fff">
                    <use xlink:href="#c"></use>
                </mask>
                <use fill="#000" filter="url(#d)" xlink:href="#c"></use>
                <use fill="#C5C5C5" xlink:href="#c"></use>
                <circle cx="12.231" cy="11.462" r="15.308" fill="url(#e)" filter="url(#f)" mask="url(#g)"></circle>
                <circle cx="7.885" cy="21.577" r="12.808" fill="#F8443E" filter="url(#h)" mask="url(#g)"></circle>
                <circle cx="7.577" cy="23.731" r="10.577" fill="#F86737" filter="url(#i)" mask="url(#g)"></circle>
                <circle cx="7.808" cy="23.885" r="8.808" fill="#F88330" filter="url(#j)" mask="url(#g)"></circle>
                <circle cx="7.808" cy="24.885" r="7.808" fill="#FBBB45" filter="url(#k)" mask="url(#g)"></circle>
                <circle cx="7.731" cy="25.885" r="6.808" fill="#FBE18A" filter="url(#l)" mask="url(#g)"></circle>
            </g>
            <g transform="translate(5.25 5.25)">
                <use fill="#000" filter="url(#m)" xlink:href="#n"></use>
                <use fill="#FFF" xlink:href="#n"></use>
                <use fill="#000" filter="url(#o)" xlink:href="#p"></use>
                <use fill="#FFF" xlink:href="#p"></use>
                <circle cx="10.3" cy="3.142" r="1" fill="#FFF"></circle>
            </g>
        </g>
    </g>
  </symbol>

  <symbol id="icon-md__description__filled" viewBox="0 0 24 24">
    <path d="M14 2H6c-1.1 0-1.99.9-1.99 2L4 20c0 1.1.89 2 1.99 2H18c1.1 0 2-.9 2-2V8l-6-6zm2 16H8v-2h8v2zm0-4H8v-2h8v2zm-3-5V3.5L18.5 9H13z"/>
  </symbol>

  <symbol id="icon-md__train__filled" viewBox="0 0 24 24">
    <path d="M12 2c-4 0-8 .5-8 4v9.5C4 17.43 5.57 19 7.5 19L6 20.5v.5h2.23l2-2H14l2 2h2v-.5L16.5 19c1.93 0 3.5-1.57 3.5-3.5V6c0-3.5-3.58-4-8-4zM7.5 17c-.83 0-1.5-.67-1.5-1.5S6.67 14 7.5 14s1.5.67 1.5 1.5S8.33 17 7.5 17zm3.5-7H6V6h5v4zm2 0V6h5v4h-5zm3.5 7c-.83 0-1.5-.67-1.5-1.5s.67-1.5 1.5-1.5 1.5.67 1.5 1.5-.67 1.5-1.5 1.5z"/>
    <path fill="none" d="M0 0h24v24H0V0z"/>
  </symbol>

  <symbol id="icon-md__subway__filled" viewBox="0 0 24 24">
    <path fill="none" d="M0 0v24h24V0H0zm22 22H2V8.86C2 6.05 3.53 3.84 6.2 2.8 8 2.09 10.14 2 12 2c1.86 0 4 .09 5.8.8C20.47 3.84 22 6.05 22 8.86V22z"/>
    <circle cx="15.5" cy="16" r="1"/>
    <circle cx="8.5" cy="16" r="1"/>
    <path d="M7.01 9h10v5h-10zM17.8 2.8C16 2.09 13.86 2 12 2c-1.86 0-4 .09-5.8.8C3.53 3.84 2 6.05 2 8.86V22h20V8.86c0-2.81-1.53-5.02-4.2-6.06zm.2 13.08c0 1.45-1.18 2.62-2.63 2.62l1.13 1.12V20H15l-1.5-1.5h-2.83L9.17 20H7.5v-.38l1.12-1.12C7.18 18.5 6 17.32 6 15.88V9c0-2.63 3-3 6-3 3.32 0 6 .38 6 3v6.88z"/>
  </symbol>

  <symbol id="icon-md__local_parking__filled" viewBox="0 0 24 24">
    <path d="M0 0h24v24H0z" fill="none"/>
    <path d="M13 3H6v18h4v-6h3c3.31 0 6-2.69 6-6s-2.69-6-6-6zm.2 8H10V7h3.2c1.1 0 2 .9 2 2s-.9 2-2 2z"/>
  </symbol>

  <symbol id="icon-md__directions_car__filled" viewBox="0 0 24 24">
    <path d="M18.92 6.01C18.72 5.42 18.16 5 17.5 5h-11c-.66 0-1.21.42-1.42 1.01L3 12v8c0 .55.45 1 1 1h1c.55 0 1-.45 1-1v-1h12v1c0 .55.45 1 1 1h1c.55 0 1-.45 1-1v-8l-2.08-5.99zM6.5 16c-.83 0-1.5-.67-1.5-1.5S5.67 13 6.5 13s1.5.67 1.5 1.5S7.33 16 6.5 16zm11 0c-.83 0-1.5-.67-1.5-1.5s.67-1.5 1.5-1.5 1.5.67 1.5 1.5-.67 1.5-1.5 1.5zM5 11l1.5-4.5h11L19 11H5z"/>
    <path d="M0 0h24v24H0z" fill="none"/>
  </symbol>

  <symbol id="icon-md__local_cafe__filled" viewBox="0 0 24 24">
    <path fill="none" d="M0,0h24v24H0V0z"/>
    <path d="M20,3H4v10c0,2.21,1.79,4,4,4h6c2.21,0,4-1.79,4-4v-3h2c1.11,0,2-0.9,2-2V5C22,3.89,21.11,3,20,3z M20,8h-2V5h2V8z"/>
    <rect x="4" y="19" width="16" height="2"/>
  </symbol>

  <symbol id="icon-md__fitness_center__filled" viewBox="0 0 24 24">
    <path fill="none" d="M0 0h24v24H0z"/>
    <path d="M20.57 14.86L22 13.43 20.57 12 17 15.57 8.43 7 12 3.43 10.57 2 9.14 3.43 7.71 2 5.57 4.14 4.14 2.71 2.71 4.14l1.43 1.43L2 7.71l1.43 1.43L2 10.57 3.43 12 7 8.43 15.57 17 12 20.57 13.43 22l1.43-1.43L16.29 22l2.14-2.14 1.43 1.43 1.43-1.43-1.43-1.43L22 16.29z"/>
  </symbol>

  <symbol id="icon-md__nature_people__filled" viewBox="0 0 24 24">
    <path d="M0 0h24v24H0z" fill="none"/>
    <path d="M22.17 9.17c0-3.87-3.13-7-7-7s-7 3.13-7 7c0 3.47 2.52 6.34 5.83 6.89V20H6v-3h1v-4c0-.55-.45-1-1-1H3c-.55 0-1 .45-1 1v4h1v5h16v-2h-3v-3.88c3.47-.41 6.17-3.36 6.17-6.95zM4.5 11c.83 0 1.5-.67 1.5-1.5S5.33 8 4.5 8 3 8.67 3 9.5 3.67 11 4.5 11z"/>
  </symbol>

  <symbol id="icon-md__local_movies__filled" viewBox="0 0 24 24">
    <path d="M18 3v2h-2V3H8v2H6V3H4v18h2v-2h2v2h8v-2h2v2h2V3h-2zM8 17H6v-2h2v2zm0-4H6v-2h2v2zm0-4H6V7h2v2zm10 8h-2v-2h2v2zm0-4h-2v-2h2v2zm0-4h-2V7h2v2z"/>
    <path d="M0 0h24v24H0z" fill="none"/>
  </symbol>

  <symbol id="icon-md__local_dining__filled" viewBox="0 0 24 24">
    <path d="M0 0h24v24H0z" fill="none"/>
    <path d="M8.1 13.34l2.83-2.83L3.91 3.5c-1.56 1.56-1.56 4.09 0 5.66l4.19 4.18zm6.78-1.81c1.53.71 3.68.21 5.27-1.38 1.91-1.91 2.28-4.65.81-6.12-1.46-1.46-4.2-1.1-6.12.81-1.59 1.59-2.09 3.74-1.38 5.27L3.7 19.87l1.41 1.41L12 14.41l6.88 6.88 1.41-1.41L13.41 13l1.47-1.47z"/>
  </symbol>

  <symbol id="icon-md__zoom_out_map__filled" viewBox="0 0 24 24">
    <defs>
      <path id="a" d="M0 0h24v24H0z"/>
    </defs>
    <clipPath id="b">
      <use xlink:href="#a" overflow="visible"/>
    </clipPath>
    <path clip-path="url(#b)" d="M15 3l2.3 2.3-2.89 2.87 1.42 1.42L18.7 6.7 21 9V3zM3 9l2.3-2.3 2.87 2.89 1.42-1.42L6.7 5.3 9 3H3zm6 12l-2.3-2.3 2.89-2.87-1.42-1.42L5.3 17.3 3 15v6zm12-6l-2.3 2.3-2.87-2.89-1.42 1.42 2.89 2.87L15 21h6z"/>
    <path clip-path="url(#b)" fill="none" d="M0 0h24v24H0z"/>
  </symbol>

  <symbol id="icon-md__error_outline" viewBox="0 0 24 24">
    <path d="M11 15h2v2h-2zm0-8h2v6h-2zm.99-5C6.47 2 2 6.48 2 12s4.47 10 9.99 10C17.52 22 22 17.52 22 12S17.52 2 11.99 2zM12 20c-4.42 0-8-3.58-8-8s3.58-8 8-8 8 3.58 8 8-3.58 8-8 8z"/>
  </symbol>

  <symbol id="icon-md__person" viewBox="0 0 24 24">
    <path d="M12 12c2.21 0 4-1.79 4-4s-1.79-4-4-4-4 1.79-4 4 1.79 4 4 4zm0 2c-2.67 0-8 1.34-8 4v2h16v-2c0-2.66-5.33-4-8-4z"/>
  </symbol>

  <symbol id="icon-md__print__filled" viewBox="0 0 24 24">
    <path d="M19 8H5c-1.66 0-3 1.34-3 3v6h4v4h12v-4h4v-6c0-1.66-1.34-3-3-3zm-3 11H8v-5h8v5zm3-7c-.55 0-1-.45-1-1s.45-1 1-1 1 .45 1 1-.45 1-1 1zm-1-9H6v4h12V3z"/>
    <path d="M0 0h24v24H0z" fill="none"/>
  </symbol>

  <symbol id="icon-md__cloud_download__filled" viewBox="0 0 24 24">
    <path d="M0 0h24v24H0z" fill="none"/>
    <path d="M19.35 10.04C18.67 6.59 15.64 4 12 4 9.11 4 6.6 5.64 5.35 8.04 2.34 8.36 0 10.91 0 14c0 3.31 2.69 6 6 6h13c2.76 0 5-2.24 5-5 0-2.64-2.05-4.78-4.65-4.96zM17 13l-5 5-5-5h3V9h4v4h3z"/>
  </symbol>

  <symbol id="icon__qr-code" viewBox="0 0 24 24">
    <path d="M16.16675,2 L22,2 L22,7.83325 L16.16675,7.83325 L16.16675,2 Z M20.33325,6.16675 L20.33325,3.66675 L17.83325,3.66675 L17.83325,6.16675 L20.33325,6.16675 Z M2,16.1665 L7.83325,16.1665 L7.83325,22 L2,22 L2,16.1665 Z M6.16675,20.3335 L6.16675,17.8335 L3.66675,17.8335 L3.66675,20.3335 L6.16675,20.3335 Z M2,2 L7.83325,2 L7.83325,7.83325 L2,7.83325 L2,2 Z M6.16675,6.16675 L6.16675,3.66675 L3.66675,3.66675 L3.66675,6.16675 L6.16675,6.16675 Z M20.33325,9.5 L22,9.5 L22,16.1665 L16.16675,16.1665 L16.16675,14.5 L20.33325,14.5 L20.33325,9.5 Z M16.16675,17.8335 L22,17.8335 L22,22 L20.33325,22 L20.33325,19.5 L17.83325,19.5 L17.83325,22 L16.16675,22 L16.16675,17.8335 Z M9.5,2 L14.5,2 L14.5,7.83325 L12.83325,7.83325 L12.83325,3.66675 L9.5,3.66675 L9.5,2 Z M12.83325,9.5 L17.83325,9.5 L17.83325,12.8335 L16.16675,12.8335 L16.16675,11.16675 L14.5,11.16675 L14.5,14.5 L11.16675,14.5 L11.16675,16.1665 L14.5,16.1665 L14.5,22 L12.83325,22 L12.83325,17.8335 L9.5,17.8335 L9.5,12.8335 L12.83325,12.8335 L12.83325,9.5 Z M9.5,19.5 L11.16675,19.5 L11.16675,22 L9.5,22 L9.5,19.5 Z M5.33325,12.8335 L7.83325,12.8335 L7.83325,14.5 L5.33325,14.5 L5.33325,12.8335 Z M9.5,5.33325 L11.16675,5.33325 L11.16675,11.16675 L3.66675,11.16675 L3.66675,14.5 L2,14.5 L2,9.5 L9.5,9.5 L9.5,5.33325 Z"/>
  </symbol>

  <symbol id="icon-md__router__filled" viewBox="0 0 24 24"><path fill="none" d="M0 0h24v24H0z"/><path d="M20.2 5.9l.8-.8C19.6 3.7 17.8 3 16 3s-3.6.7-5 2.1l.8.8C13 4.8 14.5 4.2 16 4.2s3 .6 4.2 1.7zm-.9.8c-.9-.9-2.1-1.4-3.3-1.4s-2.4.5-3.3 1.4l.8.8c.7-.7 1.6-1 2.5-1 .9 0 1.8.3 2.5 1l.8-.8zM19 13h-2V9h-2v4H5c-1.1 0-2 .9-2 2v4c0 1.1.9 2 2 2h14c1.1 0 2-.9 2-2v-4c0-1.1-.9-2-2-2zM8 18H6v-2h2v2zm3.5 0h-2v-2h2v2zm3.5 0h-2v-2h2v2z"/></symbol>

  <symbol id="icon-md__contact_support__filled" viewBox="0 0 24 24"><path d="M11.5 2C6.81 2 3 5.81 3 10.5S6.81 19 11.5 19h.5v3c4.86-2.34 8-7 8-11.5C20 5.81 16.19 2 11.5 2zm1 14.5h-2v-2h2v2zm0-3.5h-2c0-3.25 3-3 3-5 0-1.1-.9-2-2-2s-2 .9-2 2h-2c0-2.21 1.79-4 4-4s4 1.79 4 4c0 2.5-3 2.75-3 5z"/><path fill="none" d="M0 0h24v24H0z"/></symbol>

  <symbol id="icon-md__phone__filled" viewBox="0 0 24 24"><path d="M0 0h24v24H0z" fill="none"/><path d="M6.62 10.79c1.44 2.83 3.76 5.14 6.59 6.59l2.2-2.2c.27-.27.67-.36 1.02-.24 1.12.37 2.33.57 3.57.57.55 0 1 .45 1 1V20c0 .55-.45 1-1 1-9.39 0-17-7.61-17-17 0-.55.45-1 1-1h3.5c.55 0 1 .45 1 1 0 1.25.2 2.45.57 3.57.11.35.03.74-.25 1.02l-2.2 2.2z"/></symbol>

  <symbol id="icon-md__kitchen__filled" viewBox="0 0 24 24"><path fill="none" d="M0 0h24v24H0V0z"/><path d="M18 2.01L6 2c-1.1 0-2 .89-2 2v16c0 1.1.9 2 2 2h12c1.1 0 2-.9 2-2V4c0-1.11-.9-1.99-2-1.99zM18 20H6v-9.02h12V20zm0-11H6V4h12v5zM8 5h2v3H8zm0 7h2v5H8z"/></symbol>

  <symbol id="icon-md__kitchen__filled" viewBox="0 0 24 24"><path fill="none" d="M0 0h24v24H0V0z"/><path d="M18 2.01L6 2c-1.1 0-2 .89-2 2v16c0 1.1.9 2 2 2h12c1.1 0 2-.9 2-2V4c0-1.11-.9-1.99-2-1.99zM18 20H6v-9.02h12V20zm0-11H6V4h12v5zM8 5h2v3H8zm0 7h2v5H8z"/></symbol>

  <symbol id="icon-md__weekend__filled" viewBox="0 0 48 48"><defs><path id="a" d="M0 0h48v48H0z"/></defs><clipPath id="b"><use xlink:href="#a" overflow="visible"/></clipPath><path d="M42 20c-2.21 0-4 1.79-4 4v6H10v-6c0-2.21-1.79-4-4-4s-4 1.79-4 4v10c0 2.2 1.8 4 4 4h36c2.2 0 4-1.8 4-4V24c0-2.21-1.79-4-4-4zm-6-10H12c-2.2 0-4 1.8-4 4v4.31c2.32.83 4 3.03 4 5.63V28h24v-4.06c0-2.6 1.68-4.8 4-5.63V14c0-2.2-1.8-4-4-4z" clip-path="url(#b)"/></symbol>

  <symbol id="icon-slideshow" viewBox="0 0 64 64"><path d="M34.6666667,51.3801717 C36.2608037,52.3023302 37.3333333,54.0259137 37.3333333,56 C37.3333333,58.9455187 34.9455187,61.3333333 32,61.3333333 C29.0544813,61.3333333 26.6666667,58.9455187 26.6666667,56 C26.6666667,54.0259137 27.7391963,52.3023302 29.3333333,51.3801717 L29.3333333,48 L8,48 C5.06666667,48 2.66666667,45.6 2.66666667,42.6666667 L2.66666667,8 C2.66666667,5.06666667 5.06666667,2.66666667 8,2.66666667 L56,2.66666667 C58.9333333,2.66666667 61.3333333,5.06666667 61.3333333,8 L61.3066667,42.6666667 C61.3066667,45.6 58.9333333,48 56,48 L34.6666667,48 L34.6666667,51.3801717 Z M56,42.6666667 L56,13.3333333 L8,13.3333333 L8,42.6666667 L56,42.6666667 Z"></path></symbol>

  <symbol id="icon-quote-mark" viewBox="0 0 68.16 54.91"><path d="M18.82,26.5c6.34,2.3,10.37,6.91,10.37,13.63,0,8.26-6.14,14.78-14.4,14.78C6.91,54.91,0,49.73,0,38.4,0,28,5.76,11.14,17.47,0l9.41,7.1C22.66,12.67,19,20.74,18.82,26.5Zm39,0c6.34,2.3,10.37,6.91,10.37,13.63,0,8.26-6.14,14.78-14.4,14.78C45.89,54.91,39,49.73,39,38.4,39,28,44.74,11.14,56.45,0l9.41,7.1C61.63,12.67,58,20.74,57.79,26.5Z"/></symbol>

  <symbol id="icon-medium-squared" viewBox="0 0 64 64">
    <path d="M10.6666667,5.33333333 L53.3333333,5.33333333 C56.278852,5.33333333 58.6666667,7.721148 58.6666667,10.6666667 L58.6666667,53.3333333 C58.6666667,56.278852 56.278852,58.6666667 53.3333333,58.6666667 L10.6666667,58.6666667 C7.721148,58.6666667 5.33333333,56.278852 5.33333333,53.3333333 L5.33333333,10.6666667 C5.33333333,7.721148 7.721148,5.33333333 10.6666667,5.33333333 Z M21.8288204,26.7466196 L21.8288204,37.8812463 C21.9013504,38.2829138 21.7673205,38.6932197 21.4677871,38.9864786 L18.6666667,42.1963551 L18.6666667,42.6196355 L26.6093993,42.6196355 L26.6093993,42.1963551 L23.8082789,38.9864786 C23.5065486,38.6937051 23.3642194,38.286103 23.4223467,37.8812463 L23.4223467,28.2516167 L30.3940243,42.6196355 L31.2032368,42.6196355 L37.1914099,28.2516167 L37.1914099,39.7037038 C37.1914099,40.0094063 37.1914099,40.0681951 36.9797698,40.2680776 L34.8260193,42.2433863 L34.8260193,42.6666667 L45.2835357,42.6666667 L45.2835357,42.2433863 L43.2044818,40.3151088 C43.0209515,40.1829459 42.929911,39.9657271 42.9679428,39.7507349 L42.9679428,25.5825985 C42.929911,25.3676063 43.0209515,25.1503874 43.2044818,25.0182246 L45.3333333,23.0899471 L45.3333333,22.6666667 L37.9632743,22.6666667 L32.7096172,35.047619 L26.7338936,22.6666667 L19.0028011,22.6666667 L19.0028011,23.0899471 L21.492686,25.9235744 C21.7371196,26.1317111 21.8619517,26.43737 21.8288204,26.7466196 Z"></path>
  </symbol>

  <symbol id="icon-md__accessibility_new__filled" viewBox="0 0 24 24"><path d="M20.5 6c-2.61.7-5.67 1-8.5 1s-5.89-.3-8.5-1L3 8c1.86.5 4 .83 6 1v13h2v-6h2v6h2V9c2-.17 4.14-.5 6-1l-.5-2zM12 6c1.1 0 2-.9 2-2s-.9-2-2-2-2 .9-2 2 .9 2 2 2z"/><path fill="none" d="M0 0h24v24H0z"/></symbol>

  <symbol id="icon-md__router__outlined" viewBox="0 0 24 24"><path fill="none" d="M0 0h24v24H0V0zm0 0h24v24H0V0z"/><path d="M16 4.2c1.5 0 3 .6 4.2 1.7l.8-.8C19.6 3.7 17.8 3 16 3s-3.6.7-5 2.1l.8.8C13 4.8 14.5 4.2 16 4.2zm-3.3 2.5l.8.8c.7-.7 1.6-1 2.5-1s1.8.3 2.5 1l.8-.8c-.9-.9-2.1-1.4-3.3-1.4s-2.4.5-3.3 1.4zM19 13h-2V9h-2v4H5c-1.1 0-2 .9-2 2v4c0 1.1.9 2 2 2h14c1.1 0 2-.9 2-2v-4c0-1.1-.9-2-2-2zm0 6H5v-4h14v4zM6 16h2v2H6zm3.5 0h2v2h-2zm3.5 0h2v2h-2z"/></symbol>

  <symbol id="icon-md__print__outlined" viewBox="0 0 24 24"><path fill="none" d="M0 0h24v24H0V0z"/><path d="M19 8h-1V3H6v5H5c-1.66 0-3 1.34-3 3v6h4v4h12v-4h4v-6c0-1.66-1.34-3-3-3zM8 5h8v3H8V5zm8 12v2H8v-4h8v2zm2-2v-2H6v2H4v-4c0-.55.45-1 1-1h14c.55 0 1 .45 1 1v4h-2z"/><circle cx="18" cy="11.5" r="1"/></symbol>

  <symbol id="icon-md__contact_support__outlined" viewBox="0 0 24 24"><path fill="none" d="M0 0h24v24H0V0z"/><path d="M11 23.59v-3.6c-5.01-.26-9-4.42-9-9.49C2 5.26 6.26 1 11.5 1S21 5.26 21 10.5c0 4.95-3.44 9.93-8.57 12.4l-1.43.69zM11.5 3C7.36 3 4 6.36 4 10.5S7.36 18 11.5 18H13v2.3c3.64-2.3 6-6.08 6-9.8C19 6.36 15.64 3 11.5 3zm-1 11.5h2v2h-2zm2-1.5h-2c0-3.25 3-3 3-5 0-1.1-.9-2-2-2s-2 .9-2 2h-2c0-2.21 1.79-4 4-4s4 1.79 4 4c0 2.5-3 2.75-3 5z"/></symbol>

  <symbol id="icon-md__phone__outlined" viewBox="0 0 24 24"><path fill="none" d="M0 0h24v24H0V0z"/><path d="M6.54 5c.06.89.21 1.76.45 2.59l-1.2 1.2c-.41-1.2-.67-2.47-.76-3.79h1.51m9.86 12.02c.85.24 1.72.39 2.6.45v1.49c-1.32-.09-2.59-.35-3.8-.75l1.2-1.19M7.5 3H4c-.55 0-1 .45-1 1 0 9.39 7.61 17 17 17 .55 0 1-.45 1-1v-3.49c0-.55-.45-1-1-1-1.24 0-2.45-.2-3.57-.57-.1-.04-.21-.05-.31-.05-.26 0-.51.1-.71.29l-2.2 2.2c-2.83-1.45-5.15-3.76-6.59-6.59l2.2-2.2c.28-.28.36-.67.25-1.02C8.7 6.45 8.5 5.25 8.5 4c0-.55-.45-1-1-1z"/></symbol>

  <symbol id="icon-md__kitchen__outlined" viewBox="0 0 24 24"><path fill="none" d="M0 0h24v24H0V0z"/><path d="M8 5h2v3H8zm0 7h2v5H8zm10-9.99L6 2c-1.1 0-2 .89-2 2v16c0 1.1.9 2 2 2h12c1.1 0 2-.9 2-2V4c0-1.11-.9-1.99-2-1.99zM18 20H6v-9.02h12V20zm0-11H6V4h12v5z"/></symbol>

  <symbol id="icon-md__local_cafe__outlined" viewBox="0 0 24 24"><path fill="none" d="M0 0h24v24H0V0z"/><path d="M16 5v8c0 1.1-.9 2-2 2H8c-1.1 0-2-.9-2-2V5h10m4-2H4v10c0 2.21 1.79 4 4 4h6c2.21 0 4-1.79 4-4v-3h2c1.11 0 2-.89 2-2V5c0-1.11-.89-2-2-2zm-2 5V5h2v3h-2zm2 11H2v2h18v-2z"/></symbol>

  <symbol id="icon-md__weekend__outlined" viewBox="0 0 24 24"><path fill="none" d="M0 0h24v24H0V0z"/><path d="M21 9V7c0-1.65-1.35-3-3-3H6C4.35 4 3 5.35 3 7v2c-1.65 0-3 1.35-3 3v5c0 1.65 1.35 3 3 3h18c1.65 0 3-1.35 3-3v-5c0-1.65-1.35-3-3-3zM5 7c0-.55.45-1 1-1h12c.55 0 1 .45 1 1v2.78c-.61.55-1 1.34-1 2.22v2H6v-2c0-.88-.39-1.67-1-2.22V7zm17 10c0 .55-.45 1-1 1H3c-.55 0-1-.45-1-1v-5c0-.55.45-1 1-1s1 .45 1 1v4h16v-4c0-.55.45-1 1-1s1 .45 1 1v5z"/></symbol>

  <symbol id="icon-md__place__outlined" viewBox="0 0 24 24"><path fill="none" d="M0 0h24v24H0V0z"/><path d="M12 2C8.13 2 5 5.13 5 9c0 5.25 7 13 7 13s7-7.75 7-13c0-3.87-3.13-7-7-7zM7 9c0-2.76 2.24-5 5-5s5 2.24 5 5c0 2.88-2.88 7.19-5 9.88C9.92 16.21 7 11.85 7 9z"/><circle cx="12" cy="9" r="2.5"/></symbol>

  <symbol id="icon-md__visibility_off__filled" viewBox="0 0 24 24"><path d="M0 0h24v24H0zm0 0h24v24H0zm0 0h24v24H0zm0 0h24v24H0z" fill="none"/><path d="M12 7c2.76 0 5 2.24 5 5 0 .65-.13 1.26-.36 1.83l2.92 2.92c1.51-1.26 2.7-2.89 3.43-4.75-1.73-4.39-6-7.5-11-7.5-1.4 0-2.74.25-3.98.7l2.16 2.16C10.74 7.13 11.35 7 12 7zM2 4.27l2.28 2.28.46.46C3.08 8.3 1.78 10.02 1 12c1.73 4.39 6 7.5 11 7.5 1.55 0 3.03-.3 4.38-.84l.42.42L19.73 22 21 20.73 3.27 3 2 4.27zM7.53 9.8l1.55 1.55c-.05.21-.08.43-.08.65 0 1.66 1.34 3 3 3 .22 0 .44-.03.65-.08l1.55 1.55c-.67.33-1.41.53-2.2.53-2.76 0-5-2.24-5-5 0-.79.2-1.53.53-2.2zm4.31-.78l3.15 3.15.02-.16c0-1.66-1.34-3-3-3l-.17.01z"/></symbol>

  <symbol id="icon-md__warning__outlined" viewBox="0 0 24 24"><path d="M1 21h22L12 2 1 21zm3.47-2L12 5.99 19.53 19H4.47zM11 16h2v2h-2zm0-6h2v4h-2z"/></symbol>

  <symbol id="icon-facebook-filled" viewBox="0 0 24 24">
    <g fill="none" fill-rule="evenodd">
      <circle cx="12" cy="12" r="12" fill="#1F3F62" fill-opacity=".38" fill-rule="nonzero"/>
      <path fill="#FFF" d="M12.895 18v-5.474h1.769l.264-2.133h-2.033V9.031c0-.618.165-1.038 1.017-1.038H15V6.083A14.004 14.004 0 0 0 13.415 6c-1.568 0-2.641.994-2.641 2.82v1.573H9v2.133h1.774V18h2.12z"/>
    </g>
  </symbol>

  <symbol id="icon-twitter-filled" viewBox="0 0 24 24">
    <g fill="none" fill-rule="evenodd">
      <path d="M5.988 6h12.774v12.8H5.988z"/>
      <ellipse cx="11.976" cy="12" fill="#1F3F62" fill-opacity=".38" fill-rule="nonzero" rx="11.976" ry="12"/>
      <path fill="#FFF" d="M18.563 8.947c-.441.201-.916.333-1.409.396a2.465 2.465 0 0 0 1.076-1.365 4.94 4.94 0 0 1-1.557.602 2.416 2.416 0 0 0-1.809-.78 2.455 2.455 0 0 0-2.444 2.46c0 .196.023.385.063.563a6.976 6.976 0 0 1-5.06-2.57 2.438 2.438 0 0 0-.333 1.233c0 .855.43 1.612 1.094 2.042-.407 0-.784-.114-1.116-.286v.017c0 1.193.847 2.191 1.969 2.415a2.412 2.412 0 0 1-1.105.04 2.45 2.45 0 0 0 2.29 1.71 4.872 4.872 0 0 1-3.051 1.055c-.195 0-.39-.012-.584-.035a6.942 6.942 0 0 0 3.766 1.107c4.511 0 6.99-3.751 6.99-7.003 0-.11 0-.213-.006-.322.481-.344.893-.78 1.226-1.279z"/>
    </g>
  </symbol>

  <symbol id="icon-linkedin-filled" viewBox="0 0 24 24">
    <g fill="none" fill-rule="evenodd">
      <path d="M5.988 6h12.774v12.8H5.988z"/>
      <ellipse cx="11.976" cy="12" fill="#1F3F62" fill-opacity=".38" fill-rule="nonzero" rx="11.976" ry="12"/>
      <path fill="#FFF" d="M19 17.5h-2.694v-4.223c0-1.007-.017-2.302-1.4-2.302-1.401 0-1.615 1.097-1.615 2.23V17.5H10.6V8.816h2.581v1.188h.038c.359-.683 1.238-1.403 2.548-1.403C18.496 8.601 19 10.4 19 12.738V17.5zM7.563 7.63A1.563 1.563 0 0 1 6 6.065a1.563 1.563 0 1 1 3.124 0c0 .864-.7 1.565-1.561 1.565zm-1.35 9.87h2.698V8.816H6.214V17.5z"/>
    </g>
  </symbol>

  <symbol id="icon-reddit-filled" viewBox="0 0 24 24">
    <g fill="none" fill-rule="nonzero">
      <circle cx="12.003" cy="12.003" r="11.994" fill="#1F3F62" fill-opacity=".38"/>
      <path fill="#FFF" d="M20.002 12.003a1.755 1.755 0 0 0-2.963-1.202 8.527 8.527 0 0 0-4.619-1.475l.779-3.742 2.566.54a1.199 1.199 0 1 0 .158-.734l-2.94-.587c-.199-.045-.399.08-.443.283v.006l-.886 4.162a8.591 8.591 0 0 0-4.678 1.476 1.749 1.749 0 0 0-2.474.077 1.749 1.749 0 0 0 .548 2.791 3.896 3.896 0 0 0 0 .528c0 2.686 3.13 4.871 6.992 4.871 3.86 0 6.991-2.182 6.991-4.871a3.896 3.896 0 0 0 0-.528 1.75 1.75 0 0 0 .969-1.595zM8.008 13.204c0-.661.54-1.201 1.201-1.201.662 0 1.202.54 1.202 1.201 0 .662-.54 1.202-1.202 1.202a1.206 1.206 0 0 1-1.201-1.202zm6.967 3.298a4.605 4.605 0 0 1-2.963.924 4.605 4.605 0 0 1-2.964-.924.324.324 0 1 1 .456-.456A3.918 3.918 0 0 0 12 16.8a3.948 3.948 0 0 0 2.507-.73.337.337 0 0 1 .474.006.337.337 0 0 1-.006.474v-.048zm-.214-2.054c-.662 0-1.202-.54-1.202-1.202 0-.662.54-1.201 1.202-1.201.662 0 1.201.54 1.201 1.201a1.2 1.2 0 0 1-1.15 1.246h-.06l.009-.044z"/>
    </g>
  </symbol>

  <symbol id="icon-md__language__outlined" viewBox="0 0 24 24">
    <path d="M11.99 2C6.47 2 2 6.48 2 12s4.47 10 9.99 10C17.52 22 22 17.52 22 12S17.52 2 11.99 2zm6.93 6h-2.95c-.32-1.25-.78-2.45-1.38-3.56 1.84.63 3.37 1.91 4.33 3.56zM12 4.04c.83 1.2 1.48 2.53 1.91 3.96h-3.82c.43-1.43 1.08-2.76 1.91-3.96zM4.26 14C4.1 13.36 4 12.69 4 12s.1-1.36.26-2h3.38c-.08.66-.14 1.32-.14 2 0 .68.06 1.34.14 2H4.26zm.82 2h2.95c.32 1.25.78 2.45 1.38 3.56-1.84-.63-3.37-1.9-4.33-3.56zm2.95-8H5.08c.96-1.66 2.49-2.93 4.33-3.56C8.81 5.55 8.35 6.75 8.03 8zM12 19.96c-.83-1.2-1.48-2.53-1.91-3.96h3.82c-.43 1.43-1.08 2.76-1.91 3.96zM14.34 14H9.66c-.09-.66-.16-1.32-.16-2 0-.68.07-1.35.16-2h4.68c.09.65.16 1.32.16 2 0 .68-.07 1.34-.16 2zm.25 5.56c.6-1.11 1.06-2.31 1.38-3.56h2.95c-.96 1.65-2.49 2.93-4.33 3.56zM16.36 14c.08-.66.14-1.32.14-2 0-.68-.06-1.34-.14-2h3.38c.16.64.26 1.31.26 2s-.1 1.36-.26 2h-3.38z"/>
  </symbol>

  <symbol id="icon-more-horizontal-circle" viewBox="0 0 24 24">
    <path d="M7.5,10.5A1.5,1.5,0,1,0,9,12,1.5,1.5,0,0,0,7.5,10.5Zm9,0A1.5,1.5,0,1,0,18,12,1.5,1.5,0,0,0,16.5,10.5Zm-4.5,0A1.5,1.5,0,1,0,13.5,12,1.5,1.5,0,0,0,12,10.5Z"/>
    <path d="M22,12A10,10,0,1,1,12,2,10,10,0,0,1,22,12Z" fill="none" stroke="currentColor" stroke-width="1.5"/>
  </symbol>

  <symbol id="icon-md__account_balance_wallet" viewBox="0 0 24 24">
    <path d="M21 18v1c0 1.1-.9 2-2 2H5c-1.11 0-2-.9-2-2V5c0-1.1.89-2 2-2h14c1.1 0 2 .9 2 2v1h-9c-1.11 0-2 .9-2 2v8c0 1.1.89 2 2 2h9zm-9-2h10V8H12v8zm4-2.5c-.83 0-1.5-.67-1.5-1.5s.67-1.5 1.5-1.5 1.5.67 1.5 1.5-.67 1.5-1.5 1.5z"/>
  </symbol>

  <symbol id="icon-md__date_range" viewBox="0 0 24 24">
    <path d="M9 11H7v2h2v-2zm4 0h-2v2h2v-2zm4 0h-2v2h2v-2zm2-7h-1V2h-2v2H8V2H6v2H5c-1.11 0-1.99.9-1.99 2L3 20c0 1.1.89 2 2 2h14c1.1 0 2-.9 2-2V6c0-1.1-.9-2-2-2zm0 16H5V9h14v11z"/>
  </symbol>

  <symbol id="icon-md__send__filled" viewBox="0 0 24 24">
    <path d="M2.01 21L23 12 2.01 3 2 10l15 2-15 2z"/>
  </symbol>

  <symbol id="icon-gmaps-fullscreen" viewBox="0 0 18 18">
    <path d="M0,0v2v4h2V2h4V0H2H0z M16,0h-4v2h4v4h2V2V0H16z M16,16h-4v2h4h2v-2v-4h-2V16z M2,12H0v4v2h2h4v-2H2V12z"/>
  </symbol>

  <symbol id="icon-md__desktop" viewBox="0 0 24 24">
    <path d="M21 2H3c-1.1 0-2 .9-2 2v12c0 1.1.9 2 2 2h7v2H8v2h8v-2h-2v-2h7c1.1 0 2-.9 2-2V4c0-1.1-.9-2-2-2zm0 14H3V4h18v12z"/>
  </symbol>

  <symbol id="icon-md__phone" viewBox="0 0 24 24">
    <path d="M15.5 1h-8C6.12 1 5 2.12 5 3.5v17C5 21.88 6.12 23 7.5 23h8c1.38 0 2.5-1.12 2.5-2.5v-17C18 2.12 16.88 1 15.5 1zm-4 21c-.83 0-1.5-.67-1.5-1.5s.67-1.5 1.5-1.5 1.5.67 1.5 1.5-.67 1.5-1.5 1.5zm4.5-4H7V4h9v14z"/>
  </symbol>

  <symbol id="icon-md__location_city" viewBox="0 0 24 24">
    <path d="M15 11V5l-3-3-3 3v2H3v14h18V11h-6zm-8 8H5v-2h2v2zm0-4H5v-2h2v2zm0-4H5V9h2v2zm6 8h-2v-2h2v2zm0-4h-2v-2h2v2zm0-4h-2V9h2v2zm0-4h-2V5h2v2zm6 12h-2v-2h2v2zm0-4h-2v-2h2v2z"/>
  </symbol>

  <symbol id="icon-md__chevron_left" viewBox="0 0 24 24">
    <path d="M15.41 7.41L14 6l-6 6 6 6 1.41-1.41L10.83 12z"/>
  </symbol>

  <symbol id="icon-md__chevron_right" viewBox="0 0 24 24">
    <path d="M10 6L8.59 7.41 13.17 12l-4.58 4.59L10 18l6-6z"/>
  </symbol>

  <symbol id="icon-facebook-bw" viewBox="0 0 8 16">
      <g stroke="none" stroke-width="1" fill="none" fill-rule="evenodd">
          <g transform="translate(-1024.000000, -1779.000000)" fill="#969696">
              <path d="M1029.19273,1795 L1029.19273,1787.70162 L1031.55135,1787.70162 L1031.90453,1784.85732 L1029.19273,1784.85732 L1029.19273,1783.04141 C1029.19273,1782.21792 1029.4129,1781.65673 1030.54986,1781.65673 L1032,1781.65608 L1032,1779.1121 C1031.7492,1779.07744 1030.88838,1779 1029.88689,1779 C1027.7961,1779 1026.36468,1780.32551 1026.36468,1782.75972 L1026.36468,1784.85732 L1024,1784.85732 L1024,1787.70162 L1026.36468,1787.70162 L1026.36468,1795 L1029.19273,1795 Z" id="Combined-Shape"></path>
          </g>
      </g>
  </symbol>

  <symbol id="icon-twitter-bw" viewBox="0 0 16 13">
      <g stroke="none" stroke-width="1" fill="none" fill-rule="evenodd">
        <g transform="translate(-1058.000000, -1781.000000)" fill="#969696">
            <path d="M1074,1782.52941 C1073.41109,1782.79706 1072.77629,1782.97294 1072.11855,1783.05706 C1072.79159,1782.65176 1073.31166,1782.00941 1073.55641,1781.23706 C1072.92161,1781.61941 1072.21797,1781.88706 1071.4761,1782.04 C1070.87189,1781.38235 1070.02294,1781 1069.05927,1781 C1067.26195,1781 1065.7935,1782.46824 1065.7935,1784.28059 C1065.7935,1784.54059 1065.82409,1784.79294 1065.87763,1785.03 C1063.15488,1784.89235 1060.7304,1783.58471 1059.11663,1781.60412 C1058.83365,1782.08588 1058.67304,1782.65176 1058.67304,1783.24824 C1058.67304,1784.38765 1059.24665,1785.39706 1060.13384,1785.97059 C1059.59082,1785.97059 1059.08604,1785.81765 1058.64245,1785.58824 C1058.64245,1785.58824 1058.64245,1785.58824 1058.64245,1785.61118 C1058.64245,1787.20176 1059.77438,1788.53235 1061.27342,1788.83059 C1060.99809,1788.90706 1060.70746,1788.94529 1060.40918,1788.94529 C1060.20268,1788.94529 1059.99618,1788.92235 1059.79732,1788.88412 C1060.21033,1790.17647 1061.41109,1791.14 1062.8566,1791.16294 C1061.73996,1792.05 1060.32505,1792.57 1058.78011,1792.57 C1058.52008,1792.57 1058.26004,1792.55471 1058,1792.52412 C1059.45315,1793.45706 1061.18164,1794 1063.0325,1794 C1069.05927,1794 1072.37094,1788.99882 1072.37094,1784.66294 C1072.37094,1784.51765 1072.37094,1784.38 1072.36329,1784.23471 C1073.00574,1783.77588 1073.55641,1783.19471 1074,1782.52941 Z" id="share-twitter"></path>
        </g>
    </g>
  </symbol>

  <symbol id="icon-medium-bw" viewBox="0 0 16 12">
    <g stroke="none" stroke-width="1" fill="none" fill-rule="evenodd">
        <g transform="translate(-1096.000000, -1781.000000)" fill="#969696">
            <path d="M1097.89729,1783.44797 C1097.91717,1783.26242 1097.84227,1783.07903 1097.69561,1782.95414 L1096.20168,1781.25397 L1096.20168,1781 L1100.84034,1781 L1104.42577,1788.42857 L1107.57796,1781 L1112,1781 L1112,1781.25397 L1110.72269,1782.41093 C1110.61257,1782.49023 1110.55795,1782.62056 1110.58077,1782.74956 L1110.58077,1791.25044 C1110.55795,1791.37944 1110.61257,1791.50977 1110.72269,1791.58907 L1111.97012,1792.74603 L1111.97012,1793 L1105.69561,1793 L1105.69561,1792.74603 L1106.98786,1791.56085 C1107.11485,1791.44092 1107.11485,1791.40564 1107.11485,1791.22222 L1107.11485,1784.35097 L1103.52194,1792.97178 L1103.03641,1792.97178 L1098.85341,1784.35097 L1098.85341,1790.12875 C1098.81853,1790.37166 1098.90393,1790.61622 1099.08497,1790.79189 L1100.76564,1792.71781 L1100.76564,1792.97178 L1096,1792.97178 L1096,1792.71781 L1097.68067,1790.79189 C1097.86039,1790.61593 1097.94081,1790.36975 1097.89729,1790.12875 L1097.89729,1783.44797 Z" id="Shape"></path>
        </g>
    </g>
  </symbol>

  <symbol id="icon-instagram-bw" viewBox="0 0 18 18" >
    <g stroke="none" stroke-width="1" fill="none" fill-rule="evenodd">
        <g transform="translate(-1134.000000, -1778.000000)" fill="#969696">
            <g id="Glyph" transform="translate(1134.000000, 1778.000000)">
                <path d="M5.16857143,0 L12.8314286,0 C15.6859517,-5.24367401e-16 18,2.31404825 18,5.16857143 L18,12.8314286 C18,15.6859517 15.6859517,18 12.8314286,18 L5.16857143,18 C2.31404825,18 3.49578267e-16,15.6859517 0,12.8314286 L0,5.16857143 C-3.49578267e-16,2.31404825 2.31404825,5.24367401e-16 5.16857143,0 Z M5.33216749,1.62931034 C3.28713596,1.62931034 1.62931034,3.28713596 1.62931034,5.33216749 L1.62931034,12.6678325 C1.62931034,14.712864 3.28713596,16.3706897 5.33216749,16.3706897 L12.6678325,16.3706897 C14.712864,16.3706897 16.3706897,14.712864 16.3706897,12.6678325 L16.3706897,5.33216749 C16.3706897,3.28713596 14.712864,1.62931034 12.6678325,1.62931034 L5.33216749,1.62931034 Z" id="Combined-Shape"></path>
                <path d="M9,13.5775862 C6.47186895,13.5775862 4.42241379,11.5281311 4.42241379,9 C4.42241379,6.47186895 6.47186895,4.42241379 9,4.42241379 C11.5281311,4.42241379 13.5775862,6.47186895 13.5775862,9 C13.5775862,11.5281311 11.5281311,13.5775862 9,13.5775862 Z M9,11.9482759 C10.6282878,11.9482759 11.9482759,10.6282878 11.9482759,9 C11.9482759,7.3717122 10.6282878,6.05172414 9,6.05172414 C7.3717122,6.05172414 6.05172414,7.3717122 6.05172414,9 C6.05172414,10.6282878 7.3717122,11.9482759 9,11.9482759 Z" id="Combined-Shape"></path>
                <circle id="Oval-22" cx="13.7327586" cy="4.18965517" r="1.0862069"></circle>
            </g>
        </g>
    </g>
  </symbol>

  <symbol id="icon-youtube-bw" viewBox="0 0 20 14" >
    <defs>
        <polygon id="path-1" points="20 7 20 0 0 0 0 7 0 14 20 14"></polygon>
    </defs>
    <g stroke="none" stroke-width="1" fill="none" fill-rule="evenodd">
        <g transform="translate(-1211.000000, -1780.000000)">
            <g transform="translate(1211.000000, 1780.000000)">
                <mask fill="white">
                    <use xlink:href="#path-1"></use>
                </mask>
                <path d="M7.95454545,9.95456452 L7.95454545,4.04543548 L13.1818182,7.0001129 L7.95454545,9.95456452 Z M19.5820455,2.18614516 C19.3520455,1.32559677 18.6743182,0.647951613 17.8138636,0.417967742 C16.2542045,0 10,0 10,0 C10,0 3.74579545,0 2.18613636,0.417967742 C1.32568182,0.647951613 0.647954545,1.32559677 0.417954545,2.18614516 C0,3.74579032 0,7 0,7 C0,7 0,10.2540968 0.417954545,11.8138548 C0.647954545,12.6744032 1.32568182,13.3520484 2.18613636,13.5821452 C3.74579545,14 10,14 10,14 C10,14 16.2542045,14 17.8138636,13.5821452 C18.6743182,13.3520484 19.3520455,12.6744032 19.5820455,11.8138548 C20,10.2540968 20,7 20,7 C20,7 20,3.74579032 19.5820455,2.18614516 L19.5820455,2.18614516 Z" id="Fill-1" fill="#969696" mask="url(#mask-2)"></path>
            </g>
        </g>
    </g>
  </symbol>

  <symbol id="icon-telegram-bw" viewBox="0 0 18 15" >
    <g stroke="none" stroke-width="1" fill="none" fill-rule="evenodd">
      <g transform="translate(-1172.000000, -1780.000000)" fill="#969696">
          <path d="M1188.78473,1780.09918 L1172.8403,1786.20945 C1171.75207,1786.64326 1171.75852,1787.24633 1172.64195,1787.51524 L1176.61854,1788.74844 L1178.14007,1793.38336 C1178.32505,1793.89066 1178.23386,1794.09186 1178.77002,1794.09186 C1179.18378,1794.09186 1179.36733,1793.90442 1179.59778,1793.68075 C1179.74433,1793.53826 1180.61443,1792.69776 1181.58596,1791.75924 L1185.72236,1794.79576 C1186.48351,1795.21298 1187.0331,1794.99684 1187.22264,1794.09338 L1189.93786,1781.38044 C1190.21586,1780.27308 1189.51297,1779.77079 1188.78473,1780.09918 Z M1177.24262,1788.46511 L1186.20587,1782.84649 C1186.65333,1782.57687 1187.0636,1782.72183 1186.72675,1783.01892 L1179.05186,1789.8991 L1178.75302,1793.06592 L1177.24262,1788.46511 Z" id="path9"></path>
      </g>
    </g>
  </symbol>

  <symbol id="icon-reddit-bw" viewBox="0 0 22 20" >
    <g stroke="none" stroke-width="1" fill="none" fill-rule="evenodd">
      <g  transform="translate(-1248.000000, -1776.000000)" fill="#969696">
        <g transform="translate(1248.000000, 1776.000000)">
          <path d="M21.6693168,10.0039752 C21.6216149,8.71602484 20.5403727,7.71031056 19.2484472,7.75403727 C18.6760248,7.77391304 18.1314286,8.0084472 17.7180124,8.40198758 C15.8973913,7.16173913 13.7587578,6.48198758 11.5604969,6.43428571 L12.5980124,1.44546584 L16.0206211,2.16496894 C16.1160248,3.04347826 16.9031056,3.67950311 17.7816149,3.58409938 C18.6601242,3.48869565 19.2961491,2.70161491 19.2007453,1.82310559 C19.1053416,0.944596273 18.3182609,0.308571429 17.4397516,0.403975155 C16.9349068,0.455652174 16.4817391,0.749813665 16.2313043,1.18708075 L12.3118012,0.403975155 C12.0454658,0.344347826 11.7791304,0.511304348 11.7195031,0.781614907 C11.7195031,0.785590062 11.7195031,0.785590062 11.7195031,0.789565217 L10.538882,6.33888199 C8.31279503,6.37465839 6.1463354,7.05838509 4.30186335,8.30658385 C3.36372671,7.42409938 1.88496894,7.46782609 1.00248447,8.40993789 C0.12,9.34807453 0.163726708,10.8268323 1.10583851,11.7093168 C1.28869565,11.8802484 1.49937888,12.0273292 1.73391304,12.1306832 C1.71801242,12.3652174 1.71801242,12.5997516 1.73391304,12.8342857 C1.73391304,16.4159006 5.90782609,19.3296894 11.0556522,19.3296894 C16.2034783,19.3296894 20.3773913,16.4198758 20.3773913,12.8342857 C20.3932919,12.5997516 20.3932919,12.3652174 20.3773913,12.1306832 C21.1803727,11.7291925 21.6852174,10.9023602 21.6693168,10.0039752 Z M5.67726708,11.6059627 C5.67726708,10.7234783 6.39677019,10.0039752 7.27925466,10.0039752 C8.16173913,10.0039752 8.88124224,10.7234783 8.88124224,11.6059627 C8.88124224,12.4884472 8.16173913,13.2079503 7.27925466,13.2079503 C6.39279503,13.2 5.67726708,12.4884472 5.67726708,11.6059627 Z M14.967205,16.0024845 C13.8303106,16.8571429 12.4390062,17.2944099 11.0159006,17.2347826 C9.59279503,17.2944099 8.20149068,16.8571429 7.06459627,16.0024845 C6.91354037,15.8196273 6.94136646,15.5453416 7.1242236,15.3942857 C7.28322981,15.2631056 7.50981366,15.2631056 7.67279503,15.3942857 C8.63478261,16.0978882 9.80745342,16.4556522 11,16.4 C12.1925466,16.4636025 13.3691925,16.1217391 14.3431056,15.426087 C14.5180124,15.2551553 14.8042236,15.2591304 14.9751553,15.4340373 C15.146087,15.6089441 15.1421118,15.8951553 14.967205,16.066087 L14.967205,16.066087 L14.967205,16.0024845 L14.967205,16.0024845 Z M14.6809938,13.2636025 C13.7985093,13.2636025 13.0790062,12.5440994 13.0790062,11.6616149 C13.0790062,10.7791304 13.7985093,10.0596273 14.6809938,10.0596273 C15.5634783,10.0596273 16.2829814,10.7791304 16.2829814,11.6616149 C16.3187578,12.5440994 15.6310559,13.2874534 14.7485714,13.3232298 C14.7207453,13.3232298 14.6968944,13.3232298 14.6690683,13.3232298 L14.6809938,13.2636025 Z" id="Shape"></path>
        </g>
      </g>
    </g>
  </symbol>

  <symbol id="icon-facebook-share" viewBox="0 0 20 20" >
    <defs>
        <polygon id="path-1" points="0.000166666667 0 20 0 20 19.9983333 0.000166666667 19.9983333"></polygon>
    </defs>
    <g stroke="none" stroke-width="1" fill="none" fill-rule="evenodd">
        <g transform="translate(-950.000000, -64.000000)">
            <g transform="translate(950.000000, 64.000000)">
                <mask fill="white">
                    <use xlink:href="#path-1"></use>
                </mask>
                <path d="M1.1035,0 C0.494333333,0 0.000166666667,0.494166667 0.000166666667,1.10333333 L0.000166666667,18.8958333 C0.000166666667,19.505 0.494333333,19.9983333 1.1035,19.9983333 L10.8335,19.9983333 L10.8335,12.4991667 L8.3335,12.4991667 L8.3335,9.99916667 L10.8335,9.99916667 L10.8335,8.33333333 C10.8335,5.75 12.696,4.16666667 15.0001667,4.16666667 C16.1043333,4.16666667 16.8068333,4.13 17.0835,4.16666667 L16.6668333,6.66666667 L15.0001667,6.66666667 C13.7501667,6.66666667 13.3335,7.4575 13.3335,8.33333333 L13.3335,9.99916667 L16.8943333,9.99916667 L16.2501667,12.4991667 L13.3335,12.4991667 L13.3335,19.9983333 L18.896,19.9983333 C19.5068333,19.9983333 20.0001667,19.505 20.0001667,18.8958333 L20.0001667,1.10333333 C20.0001667,0.494166667 19.5068333,0 18.8968333,0 L1.1035,0 Z" id="Fill-1" fill="#969696" mask="url(#mask-2)"></path>
            </g>
        </g>
    </g>
  </symbol>

  <symbol id="icon-twitter-share" viewBox="0 0 20 16" >
    <g stroke="none" stroke-width="1" fill="none" fill-rule="evenodd">
      <g transform="translate(-1142.000000, -66.000000)" fill="#969696">
        <path d="M1162,67.8823529 C1161.26386,68.2117647 1160.47036,68.4282353 1159.64818,68.5317647 C1160.48948,68.0329412 1161.13958,67.2423529 1161.44551,66.2917647 C1160.65201,66.7623529 1159.77247,67.0917647 1158.84512,67.28 C1158.08987,66.4705882 1157.02868,66 1155.82409,66 C1153.57744,66 1151.74187,67.8070588 1151.74187,70.0376471 C1151.74187,70.3576471 1151.78011,70.6682353 1151.84704,70.96 C1148.44359,70.7905882 1145.413,69.1811765 1143.39579,66.7435294 C1143.04207,67.3364706 1142.8413,68.0329412 1142.8413,68.7670588 C1142.8413,70.1694118 1143.55832,71.4117647 1144.6673,72.1176471 C1143.98853,72.1176471 1143.35755,71.9294118 1142.80306,71.6470588 C1142.80306,71.6470588 1142.80306,71.6470588 1142.80306,71.6752941 C1142.80306,73.6329412 1144.21797,75.2705882 1146.09178,75.6376471 C1145.74761,75.7317647 1145.38432,75.7788235 1145.01147,75.7788235 C1144.75335,75.7788235 1144.49522,75.7505882 1144.24665,75.7035294 C1144.76291,77.2941176 1146.26386,78.48 1148.07075,78.5082353 C1146.67495,79.6 1144.90631,80.24 1142.97514,80.24 C1142.6501,80.24 1142.32505,80.2211765 1142,80.1835294 C1143.81644,81.3317647 1145.97706,82 1148.29063,82 C1155.82409,82 1159.96367,75.8447059 1159.96367,70.5082353 C1159.96367,70.3294118 1159.96367,70.16 1159.95411,69.9811765 C1160.75717,69.4164706 1161.44551,68.7011765 1162,67.8823529 Z" id="share-twitter-copy"></path>
      </g>
    </g>
  </symbol>

  <symbol id="icon-download-dahsed" viewBox="0 0 34 34" >
    <g stroke="none" stroke-width="1" fill="none" fill-rule="evenodd">
      <g transform="translate(-1215.000000, -1345.000000)" fill="#F86301">
        <g transform="translate(1232.000000, 1361.500000) rotate(90.000000) translate(-1232.000000, -1361.500000) translate(1215.000000, 1345.000000)">
          <path d="M26.6498667,23.6522 C26.6498667,24.9402 25.6068667,25.9832 24.3165333,25.9832 C23.0308667,25.9832 21.9855333,24.9402 21.9855333,23.6522 C21.9855333,22.3618667 23.0308667,21.3188667 24.3165333,21.3188667 C25.6068667,21.3188667 26.6498667,22.3618667 26.6498667,23.6522" id="Fill-1"></path>
          <path d="M26.6498667,16.6568667 C26.6498667,17.9448667 25.6068667,18.9878667 24.3165333,18.9878667 C23.0308667,18.9878667 21.9855333,17.9448667 21.9855333,16.6568667 C21.9855333,15.3665333 23.0308667,14.3235333 24.3165333,14.3235333 C25.6068667,14.3235333 26.6498667,15.3665333 26.6498667,16.6568667" id="Fill-3"></path>
          <path d="M26.6498667,9.6613 C26.6498667,10.9493 25.6068667,11.9923 24.3165333,11.9923 C23.0308667,11.9923 21.9855333,10.9493 21.9855333,9.6613 C21.9855333,8.37096667 23.0308667,7.32796667 24.3165333,7.32796667 C25.6068667,7.32796667 26.6498667,8.37096667 26.6498667,9.6613" id="Fill-5"></path>
          <path d="M19.6545333,16.6568667 C19.6545333,17.9448667 18.6115333,18.9878667 17.3212,18.9878667 C16.0355333,18.9878667 14.9902,17.9448667 14.9902,16.6568667 C14.9902,15.3665333 16.0355333,14.3235333 17.3212,14.3235333 C18.6115333,14.3235333 19.6545333,15.3665333 19.6545333,16.6568667" id="Fill-7"></path>
          <path d="M19.6545333,30.6477667 C19.6545333,31.9357667 18.6115333,32.9787667 17.3212,32.9787667 C16.0355333,32.9787667 14.9902,31.9357667 14.9902,30.6477667 C14.9902,29.3574333 16.0355333,28.3144333 17.3212,28.3144333 C18.6115333,28.3144333 19.6545333,29.3574333 19.6545333,30.6477667" id="Fill-9"></path>
          <path d="M19.6545333,2.66596667 C19.6545333,3.95396667 18.6115333,4.99696667 17.3212,4.99696667 C16.0355333,4.99696667 14.9902,3.95396667 14.9902,2.66596667 C14.9902,1.37563333 16.0355333,0.332633333 17.3212,0.332633333 C18.6115333,0.332633333 19.6545333,1.37563333 19.6545333,2.66596667" id="Fill-11"></path>
          <path d="M12.6589667,16.6568667 C12.6589667,17.9448667 11.6159667,18.9878667 10.3256333,18.9878667 C9.03996667,18.9878667 7.99463333,17.9448667 7.99463333,16.6568667 C7.99463333,15.3665333 9.03996667,14.3235333 10.3256333,14.3235333 C11.6159667,14.3235333 12.6589667,15.3665333 12.6589667,16.6568667" id="Fill-14"></path>
          <path d="M5.66363333,16.6568667 C5.66363333,17.9448667 4.62063333,18.9878667 3.3303,18.9878667 C2.04463333,18.9878667 0.9993,17.9448667 0.9993,16.6568667 C0.9993,15.3665333 2.04463333,14.3235333 3.3303,14.3235333 C4.62063333,14.3235333 5.66363333,15.3665333 5.66363333,16.6568667" id="Fill-16"></path>
          <path d="M33.6683,16.6568667 C33.6683,17.9448667 32.6253,18.9878667 31.3349667,18.9878667 C30.0493,18.9878667 29.0039667,17.9448667 29.0039667,16.6568667 C29.0039667,15.3665333 30.0493,14.3235333 31.3349667,14.3235333 C32.6253,14.3235333 33.6683,15.3665333 33.6683,16.6568667" id="Fill-19"></path>
        </g>
      </g>
    </g>
  </symbol>

</defs>
</svg>
